<svg width="239" height="127" viewBox="0 0 239 127" fill="none" xmlns="http://www.w3.org/2000/svg">
<path d="M139.5 2.5C125.13 2.5 112.45 7.22702 104.88 14.434C98.78 11.32 91.43 9.5 83.5 9.5C66.64 9.5 52.34 17.739 47.38 29.141C35.746 25.025 26.45 24.804 23.571 29.39C21.637 32.472 22.919 37.219 26.627 42.639C12.34 47.678 2.5 58.26 2.5 70.5C2.5 87.621 21.752 101.5 45.5 101.5C49.17 101.5 52.74 101.167 56.14 100.542C66.9 112.864 91.89 121.5 121 121.5C141.41 121.5 159.79 117.253 172.66 110.471C177.06 115.956 183.47 120.362 191.08 122.543C202.54 125.823 213.7 123.208 220.5 116.627C213.8 114.864 207.29 110.406 202.46 103.609C200.79 101.253 199.43 98.764 198.38 96.214C211.35 94.642 220.91 89.041 222.41 80.884C222.94 78.048 222.44 75.153 221.09 72.326C230.51 67.465 236.5 60.165 236.5 52C236.5 37.364 217.25 25.5 193.5 25.5C189.22 25.5 185.08 25.887 181.18 26.604C178.63 13.019 160.94 2.5 139.5 2.5Z" fill="#FFD54F" stroke="black" stroke-width="5"/>
</svg>
