<svg width="282" height="115" viewBox="0 0 282 115" fill="none" xmlns="http://www.w3.org/2000/svg">
<path d="M205.8 2.03528C228.32 -4.55472 250.92 5.38524 256.27 24.2452C257.25 27.6852 257.58 31.1954 257.34 34.6554C269.5 40.1854 277.07 47.7155 277.91 56.5655C280.01 78.8355 238.72 101.085 185.67 106.255C162.57 108.505 141.05 107.156 123.95 103.066C116.2 106.466 107.35 108.825 97.84 109.755C74.64 112.015 53.67 105.186 42.4 93.2955L0 94.9655C0.05 94.9255 8.94003 88.0553 14.16 83.0953C17.8 79.6253 20.32 76.3157 22.01 73.6857C19.4 70.6457 17.47 67.1357 16.39 63.2257C11.21 44.3157 27.9001 23.0755 53.6801 15.7755C62.8101 13.1955 71.86 12.7155 79.97 14.0055C83.09 11.4055 86.73 9.42551 90.8 8.27551C95.8501 6.84551 100.99 6.8453 105.85 8.0553C110.95 3.9253 117.2 1.42551 124 1.27551C132.24 1.09551 139.83 4.38567 145.62 9.93567C152.6 5.19567 161.39 2.2653 171 2.0553C179.41 1.8653 187.28 3.78547 193.92 7.23547C197.52 5.06547 201.5 3.29528 205.8 2.03528Z" fill="#FFD54F"/>
<mask id="mask0_3_2" style="mask-type:luminance" maskUnits="userSpaceOnUse" x="0" y="0" width="278" height="111">
<path d="M205.8 2.03528C228.32 -4.55472 250.92 5.38524 256.27 24.2452C257.25 27.6852 257.58 31.1954 257.34 34.6554C269.5 40.1854 277.07 47.7155 277.91 56.5655C280.01 78.8355 238.72 101.085 185.67 106.255C162.57 108.505 141.05 107.156 123.95 103.066C116.2 106.466 107.35 108.825 97.84 109.755C74.64 112.015 53.67 105.186 42.4 93.2955L0 94.9655C0.05 94.9255 8.94003 88.0553 14.16 83.0953C17.8 79.6253 20.32 76.3157 22.01 73.6857C19.4 70.6457 17.47 67.1357 16.39 63.2257C11.21 44.3157 27.9001 23.0755 53.6801 15.7755C62.8101 13.1955 71.86 12.7155 79.97 14.0055C83.09 11.4055 86.73 9.42551 90.8 8.27551C95.8501 6.84551 100.99 6.8453 105.85 8.0553C110.95 3.9253 117.2 1.42551 124 1.27551C132.24 1.09551 139.83 4.38567 145.62 9.93567C152.6 5.19567 161.39 2.2653 171 2.0553C179.41 1.8653 187.28 3.78547 193.92 7.23547C197.52 5.06547 201.5 3.29528 205.8 2.03528Z" fill="white"/>
</mask>
<g mask="url(#mask0_3_2)">
<path d="M257.34 34.6553L253.35 34.3755L253.15 37.1455L255.68 38.2954L257.34 34.6553ZM123.95 103.065L124.88 99.1753L123.57 98.8555L122.34 99.4053L123.95 103.065ZM42.4 93.2954L45.3101 90.5454L44.0601 89.2256L42.24 89.2954L42.4 93.2954ZM0 94.9653L-2.43994 91.7954L-12.35 99.4556L0.160034 98.9653L0 94.9653ZM22.01 73.6856L25.38 75.8355L26.98 73.3355L25.04 71.0752L22.01 73.6856ZM79.97 14.0054L79.34 17.9556L81.13 18.2354L82.53 17.0752L79.97 14.0054ZM105.85 8.05519L104.89 11.9356L106.82 12.4155L108.37 11.1553L105.85 8.05519ZM145.62 9.93556L142.86 12.8252L145.19 15.0654L147.87 13.2451L145.62 9.93556ZM193.92 7.23537L192.08 10.7852L194.07 11.8154L195.99 10.6655L193.92 7.23537ZM205.8 2.03517L206.92 5.8755C228 -0.294496 247.86 9.24547 252.42 25.3355L256.27 24.2451L260.12 23.1553C253.98 1.52529 228.65 -8.82442 204.67 -1.79442L205.8 2.03517ZM256.27 24.2451L252.42 25.3355C253.27 28.3155 253.56 31.3555 253.35 34.3755L257.34 34.6553L261.33 34.9356C261.6 31.0256 261.23 27.0553 260.12 23.1553L256.27 24.2451ZM257.34 34.6553L255.68 38.2954C267.44 43.6454 273.3 50.2853 273.93 56.9453L277.91 56.5654L281.89 56.1953C280.85 45.1353 271.55 36.7252 258.99 31.0152L257.34 34.6553ZM277.91 56.5654L273.93 56.9453C274.32 61.1353 272.73 65.6853 268.77 70.4453C264.8 75.2153 258.64 79.9552 250.57 84.3052C234.45 92.9852 211.41 99.7254 185.29 102.275L185.67 106.255L186.06 110.235C212.98 107.615 237.11 100.645 254.37 91.3452C262.99 86.6952 270.08 81.3752 274.92 75.5552C279.77 69.7252 282.55 63.1353 281.89 56.1953L277.91 56.5654ZM185.67 106.255L185.29 102.275C162.55 104.495 141.48 103.145 124.88 99.1753L123.95 103.065L123.02 106.956C140.63 111.166 162.6 112.525 186.06 110.235L185.67 106.255ZM123.95 103.065L122.34 99.4053C114.99 102.635 106.55 104.885 97.46 105.775L97.84 109.755L98.23 113.735C108.15 112.765 117.41 110.306 125.56 106.726L123.95 103.065ZM97.84 109.755L97.46 105.775C75.09 107.955 55.4901 101.295 45.3101 90.5454L42.4 93.2954L39.5 96.0454C51.85 109.085 74.19 116.075 98.23 113.735L97.84 109.755ZM42.4 93.2954L42.24 89.2954L-0.160034 90.9653L0 94.9653L0.160034 98.9653L42.5601 97.2954L42.4 93.2954ZM0 94.9653L2.44995 98.1353C2.46995 98.1153 11.52 91.1251 16.91 85.9951L14.16 83.0952L11.4 80.1953C6.36002 84.9953 -2.35994 91.7354 -2.43994 91.7954L0 94.9653ZM14.16 83.0952L16.91 85.9951C20.81 82.2851 23.53 78.7155 25.38 75.8355L22.01 73.6856L18.64 71.5254C17.11 73.9154 14.79 76.9753 11.4 80.1953L14.16 83.0952ZM22.01 73.6856L25.04 71.0752C22.79 68.4552 21.16 65.4755 20.25 62.1655L16.39 63.2256L12.54 64.2754C13.78 68.7954 16 72.8254 18.98 76.2954L22.01 73.6856ZM16.39 63.2256L20.25 62.1655C18.08 54.2355 20.3901 45.4753 26.5701 37.6152C32.7501 29.7653 42.61 23.0655 54.77 19.6255L53.6801 15.7754L52.59 11.9356C38.97 15.7856 27.6 23.3553 20.28 32.6753C12.97 41.9853 9.53004 53.3054 12.54 64.2754L16.39 63.2256ZM53.6801 15.7754L54.77 19.6255C63.37 17.1955 71.83 16.7556 79.34 17.9556L79.97 14.0054L80.6 10.0552C71.89 8.66519 62.26 9.19556 52.59 11.9356L53.6801 15.7754ZM79.97 14.0054L82.53 17.0752C85.24 14.8152 88.38 13.1155 91.89 12.1255L90.8 8.27541L89.71 4.42531C85.08 5.73531 80.94 7.98556 77.41 10.9356L79.97 14.0054ZM90.8 8.27541L91.89 12.1255C96.24 10.8855 100.67 10.8856 104.89 11.9356L105.85 8.05519L106.81 4.16554C101.3 2.80554 95.46 2.79531 89.71 4.42531L90.8 8.27541ZM105.85 8.05519L108.37 11.1553C112.83 7.54529 118.24 5.40541 124.09 5.27541L124 1.27541L123.91 -2.72459C116.16 -2.55459 109.07 0.295329 103.33 4.94533L105.85 8.05519ZM124 1.27541L124.09 5.27541C131.17 5.11541 137.76 7.93521 142.86 12.8252L145.62 9.93556L148.39 7.04543C141.9 0.835426 133.31 -2.93459 123.91 -2.72459L124 1.27541ZM145.62 9.93556L147.87 13.2451C154.2 8.94513 162.23 6.24519 171.09 6.05519L171 2.05519L170.91 -1.94481C160.55 -1.71481 151 1.4355 143.37 6.6255L145.62 9.93556ZM171 2.05519L171.09 6.05519C178.83 5.88519 186.04 7.64517 192.08 10.7852L193.92 7.23537L195.77 3.68556C188.52 -0.0744369 179.98 -2.14481 170.91 -1.94481L171 2.05519ZM193.92 7.23537L195.99 10.6655C199.29 8.66554 202.96 7.0355 206.92 5.8755L205.8 2.03517L204.67 -1.79442C200.05 -0.444417 195.75 1.46545 191.86 3.81545L193.92 7.23537Z" fill="black"/>
</g>
<path d="M116.62 27.3853C117.25 27.2953 118.42 27.0252 120.14 26.5952C121.62 26.2452 122.81 26.0253 123.71 25.9253C124.06 25.9053 124.41 25.8955 124.74 25.8955C127.32 25.8955 128.6 26.8155 128.58 28.6455C128.58 31.2455 126.97 33.8453 123.77 36.4453C125.78 36.3053 126.95 36.8755 127.26 38.1455C127.32 38.4155 127.35 38.6951 127.35 38.9951C127.35 40.4551 126.64 41.9453 125.24 43.4453C124.16 44.5953 122.83 45.6151 121.25 46.4951C119.36 47.5451 117.18 48.0752 114.72 48.0752C114.33 48.0752 113.94 48.0654 113.55 48.0454C114.31 44.0354 115.15 38.6553 116.07 31.9053C116.34 29.9853 116.53 28.4853 116.62 27.3853ZM119.73 39.5752C119.57 40.3152 119.41 41.3252 119.23 42.5952C121.98 41.7552 123.36 40.7956 123.36 39.7256C123.36 39.3356 123.02 39.1353 122.34 39.1353C121.73 39.1353 120.86 39.2852 119.73 39.5752ZM121.34 31.7256C121.18 32.3656 121.04 33.0153 120.9 33.6553L120.49 35.5952C121.92 34.7152 122.93 33.6954 123.54 32.5454C123.67 32.2954 123.74 32.0855 123.74 31.9355C123.74 31.5955 123.49 31.4355 122.98 31.4355C122.59 31.4355 122.04 31.5256 121.34 31.7256ZM138.16 25.0752C140.23 25.0752 141.69 26.2252 142.55 28.5352C143 29.7252 143.22 31.0356 143.22 32.4556C143.22 33.8256 143.02 35.3055 142.61 36.9155C141.89 39.6455 140.64 42.1653 138.86 44.4653C136.69 47.2853 134.4 48.6855 131.97 48.6855C129.89 48.6855 128.4 47.5354 127.52 45.2354C127.09 44.0954 126.88 42.8253 126.88 41.4253C126.88 40.0353 127.09 38.5355 127.52 36.9155C128.24 34.1555 129.48 31.6252 131.24 29.3252C133.41 26.4952 135.72 25.0752 138.16 25.0752ZM137.1 32.3452C136.03 32.3452 134.93 33.2156 133.82 34.9756C132.92 36.3656 132.3 37.7254 131.95 39.0454C131.77 39.7554 131.68 40.3856 131.68 40.9556C131.68 41.7556 131.88 42.4055 132.27 42.9155C132.72 43.4855 133.34 43.7651 134.14 43.7651C135.24 43.7651 136.22 43.1952 137.1 42.0352C137.8 41.1152 138.31 40.0352 138.63 38.7852C139 37.3252 139.07 35.8753 138.86 34.4453C138.63 33.0453 138.04 32.3452 137.1 32.3452ZM155.44 26.0752L155.27 31.5254C153.9 31.5954 152.6 31.6954 151.37 31.8154C150.08 37.2254 149.21 42.1956 148.76 46.7256L143.81 48.0151L146.51 32.4253C145.98 32.5053 145.45 32.5953 144.92 32.6953L143.37 32.9854L143.02 27.5054L155.44 26.0752ZM171.94 26.0752L171.76 31.5254C170.39 31.5954 169.09 31.6954 167.86 31.8154C166.57 37.2254 165.71 42.1956 165.26 46.7256L160.3 48.0151L163 32.4253C162.47 32.5053 161.95 32.5953 161.42 32.6953L159.87 32.9854L159.51 27.5054L171.94 26.0752ZM179.38 26.8652L184.09 27.6855C179.88 35.0855 176.54 41.7854 174.07 47.7754L169.56 47.4854L172.67 40.9556L170.21 29.1753L175.92 26.5352C175.86 27.4352 175.82 28.5653 175.8 29.9053C175.78 31.2553 175.85 32.6056 176.01 33.9556L179.38 26.8652ZM193.97 26.0752L193.79 31.5254C192.42 31.5954 191.13 31.6954 189.89 31.8154C188.61 37.2254 187.74 42.1956 187.29 46.7256L182.34 48.0151L185.03 32.4253C184.5 32.5053 183.98 32.5953 183.45 32.6953L181.9 32.9854L181.55 27.5054L193.97 26.0752ZM111.63 62.3052L117.05 61.3652C116.07 65.0952 115.28 68.4952 114.68 71.5552L117.11 71.0654L118.6 62.3052L124.02 61.3652C121.95 69.3552 120.64 76.1356 120.09 81.7256L115.06 83.0151L116.4 75.0454C115.86 75.1654 115.03 75.3352 113.91 75.5752C113.54 77.9752 113.28 80.0256 113.12 81.7256L108.08 83.0151L111.63 62.3052ZM137.67 67.3452C136.99 67.3452 136.09 68.2156 134.98 69.9756C134.37 70.9356 133.84 72.2954 133.4 74.0454C133.22 74.7554 133.13 75.3856 133.13 75.9556C133.13 76.7556 133.33 77.4055 133.72 77.9155C134.17 78.4855 134.69 78.7651 135.3 78.7651C136 78.7651 136.79 78.1952 137.67 77.0352C138.38 76.1152 138.88 75.0352 139.2 73.7852C139.59 72.2652 139.67 70.8153 139.43 69.4453C139.2 68.0453 138.61 67.3452 137.67 67.3452ZM138.73 60.0752C140.8 60.0752 142.26 61.2252 143.12 63.5352C143.57 64.7252 143.8 66.0356 143.8 67.4556C143.8 68.8256 143.59 70.3055 143.18 71.9155C142.46 74.6455 141.21 77.1653 139.43 79.4653C137.26 82.2853 135.26 83.6855 133.43 83.6855C131.34 83.6855 129.85 82.5354 128.97 80.2354C128.54 79.0954 128.33 77.8253 128.33 76.4253C128.33 76.0553 128.35 75.6654 128.39 75.2554C127.96 75.3454 127.45 75.4552 126.86 75.5752C126.49 77.9752 126.23 80.0256 126.07 81.7256L121.03 83.0151L124.58 62.3052L130 61.3652C129.02 65.0952 128.23 68.4952 127.62 71.5552L129.15 71.2354C129.89 68.7354 131.07 66.4352 132.69 64.3252C134.86 61.4952 136.87 60.0752 138.73 60.0752ZM139.34 83.3652C142.21 76.0452 144.54 68.9855 146.32 62.1855L155.22 60.6953C154.21 66.6053 153.75 73.6053 153.84 81.6953L147.63 83.1353L148.07 79.4653L146.11 79.8555L145.5 82.4253L139.34 83.3652ZM148.54 75.5454L149.89 64.4653H149.86L147.11 75.8052L148.54 75.5454ZM157.18 62.3052L162.6 61.3652C161.63 65.0952 160.84 68.4952 160.23 71.5552L162.66 71.0654L164.16 62.3052L169.58 61.3652C167.51 69.3552 166.2 76.1356 165.65 81.7256L160.61 83.0151L161.96 75.0454C161.41 75.1654 160.58 75.3352 159.47 75.5752C159.1 77.9752 158.84 80.0256 158.68 81.7256L153.64 83.0151L157.18 62.3052ZM177.25 60.8652C179.28 60.8652 180.78 61.9653 181.74 64.1753L178.43 67.8052C177.98 67.3452 177.46 67.1055 176.87 67.1055C175.84 67.1055 174.76 67.9954 173.65 69.7754C172.73 71.2354 172.14 72.6055 171.86 73.8755C171.73 74.4755 171.66 75.0251 171.66 75.5151C171.66 76.8251 172.14 77.7256 173.09 78.2056C173.41 78.3656 173.74 78.4453 174.09 78.4453C175.1 78.4453 176.17 77.6955 177.28 76.1855L178.22 79.6753C176.29 81.8253 174.32 82.8955 172.33 82.8955C170.3 82.8955 168.82 81.8253 167.88 79.6753C167.31 78.4253 167.03 77.0254 167.03 75.4854C167.03 74.3554 167.18 73.1553 167.47 71.8853C168.05 69.2853 169.17 66.9151 170.81 64.7651C172.78 62.1651 174.93 60.8652 177.25 60.8652ZM184.05 78.1855C184.64 78.1855 185.14 78.3355 185.57 78.6455C186.02 78.9655 186.25 79.4053 186.25 79.9653C186.25 80.8653 185.78 81.6853 184.84 82.4253C183.92 83.1553 182.92 83.5151 181.82 83.5151C181.24 83.5151 180.74 83.3755 180.33 83.1055C179.86 82.7755 179.63 82.3352 179.63 81.7852C179.63 80.8852 180.09 80.0652 181 79.3252C181.94 78.5652 182.96 78.1855 184.05 78.1855ZM192.66 78.1855C193.25 78.1855 193.76 78.3355 194.19 78.6455C194.64 78.9655 194.86 79.4053 194.86 79.9653C194.86 80.8653 194.39 81.6853 193.45 82.4253C192.54 83.1553 191.53 83.5151 190.44 83.5151C189.85 83.5151 189.35 83.3755 188.94 83.1055C188.47 82.7755 188.24 82.3352 188.24 81.7852C188.24 80.8852 188.7 80.0652 189.62 79.3252C190.55 78.5652 191.57 78.1855 192.66 78.1855Z" fill="black"/>
</svg>
