<svg width="96" height="82" viewBox="0 0 96 82" fill="none" xmlns="http://www.w3.org/2000/svg">
<g filter="url(#filter0_d_14_2)">
<path d="M90 29.1899C90 48.8899 70.65 71.3599 45.51 71.3599C20.38 71.3599 0 55.3802 0 35.6802C0 15.9702 20.38 0 45.51 0C70.65 0 90 9.47994 90 29.1899Z" fill="#00E091"/>
<path d="M45.51 1.5C57.92 1.5 68.74 3.84023 76.4 8.49023C83.99 13.0802 88.5 19.9299 88.5 29.1899C88.5 38.5699 83.87 48.7499 76.11 56.6099C68.37 64.4499 57.62 69.8599 45.51 69.8599C20.84 69.8599 1.5 54.2302 1.5 35.6802C1.5 17.1202 20.84 1.5 45.51 1.5Z" stroke="black" stroke-width="3"/>
</g>
<path d="M47.03 31.5601C45.8 31.6001 44.19 32.4601 42.2 34.1401C45.87 34.7101 47.6999 36.1402 47.6799 38.4502C47.6799 40.4402 46.4799 42.4299 44.0699 44.4199C41.6899 46.4099 39.42 47.3199 37.25 47.1499C34.75 46.9299 33.41 45.1001 33.23 41.6401L38.65 40.8799C38.58 41.1099 38.54 41.3202 38.54 41.4902C38.54 41.8202 38.7 41.9902 39.03 41.9902C39.17 41.9902 39.33 41.9599 39.5 41.8999C40.34 41.6699 40.9899 41.2599 41.4399 40.6699C41.6099 40.4599 41.7 40.2398 41.7 40.0298C41.7 39.1498 40.75 38.71 38.86 38.71C37.82 38.71 36.45 38.8301 34.73 39.0601L35.72 34.1401C37.5 32.9701 39.1999 31.82 40.8199 30.71C39.1599 30.85 37.52 31.0202 35.9 31.2402L36.25 25.6699L48.0599 25C47.7999 26.44 47.46 28.6301 47.03 31.5601Z" fill="black"/>
<defs>
<filter id="filter0_d_14_2" x="0" y="0" width="96" height="81.3599" filterUnits="userSpaceOnUse" color-interpolation-filters="sRGB">
<feFlood flood-opacity="0" result="BackgroundImageFix"/>
<feColorMatrix in="SourceAlpha" type="matrix" values="0 0 0 0 0 0 0 0 0 0 0 0 0 0 0 0 0 0 127 0" result="hardAlpha"/>
<feOffset dx="6" dy="10"/>
<feComposite in2="hardAlpha" operator="out"/>
<feColorMatrix type="matrix" values="0 0 0 0 0 0 0 0 0 0 0 0 0 0 0 0 0 0 0.75 0"/>
<feBlend mode="normal" in2="BackgroundImageFix" result="effect1_dropShadow_14_2"/>
<feBlend mode="normal" in="SourceGraphic" in2="effect1_dropShadow_14_2" result="shape"/>
</filter>
</defs>
</svg>
