<svg width="96" height="82" viewBox="0 0 96 82" fill="none" xmlns="http://www.w3.org/2000/svg">
<g filter="url(#filter0_d_34_328)">
<path d="M90 29.1899C90 48.8899 70.65 71.3599 45.51 71.3599C20.38 71.3599 0 55.3802 0 35.6802C0 15.9702 20.38 0 45.51 0C70.65 0 90 9.47994 90 29.1899Z" fill="#00E091"/>
<path d="M45.51 1.5C57.92 1.5 68.74 3.84023 76.4 8.49023C83.99 13.0802 88.5 19.9299 88.5 29.1899C88.5 38.5699 83.87 48.7499 76.11 56.6099C68.37 64.4499 57.62 69.8599 45.51 69.8599C20.84 69.8599 1.5 54.2302 1.5 35.6802C1.5 17.1202 20.84 1.5 45.51 1.5Z" stroke="black" stroke-width="3"/>
</g>
<path d="M42.9 27.96L47.88 27.0801C46.91 30.9801 46.19 34.0801 45.74 36.3701L47.15 36.2798L46.53 41.7603C46.34 41.7603 46.05 41.7603 45.66 41.7603C45.28 41.7803 44.9999 41.79 44.8099 41.79C44.5899 43.09 44.4299 44.3902 44.3099 45.6802L39.6799 46.8501L40.5 41.9902C38.61 42.1102 36.69 42.28 34.76 42.52L33.59 40.0298L37.54 25.8799L43.08 25.0601C41.46 29.2601 40.08 33.1598 38.95 36.7798L41.4399 36.6299L42.9 27.96Z" fill="black"/>
<defs>
<filter id="filter0_d_34_328" x="0" y="0" width="96" height="81.3599" filterUnits="userSpaceOnUse" color-interpolation-filters="sRGB">
<feFlood flood-opacity="0" result="BackgroundImageFix"/>
<feColorMatrix in="SourceAlpha" type="matrix" values="0 0 0 0 0 0 0 0 0 0 0 0 0 0 0 0 0 0 127 0" result="hardAlpha"/>
<feOffset dx="6" dy="10"/>
<feComposite in2="hardAlpha" operator="out"/>
<feColorMatrix type="matrix" values="0 0 0 0 0 0 0 0 0 0 0 0 0 0 0 0 0 0 0.75 0"/>
<feBlend mode="normal" in2="BackgroundImageFix" result="effect1_dropShadow_34_328"/>
<feBlend mode="normal" in="SourceGraphic" in2="effect1_dropShadow_34_328" result="shape"/>
</filter>
</defs>
</svg>
