<svg width="97" height="86" viewBox="0 0 97 86" fill="none" xmlns="http://www.w3.org/2000/svg">
<g filter="url(#filter0_d_1_248)">
<g filter="url(#filter1_d_1_248)">
<path d="M91 34.6304C91 53.9604 72.296 76 47.997 76C23.698 76 4 60.33 4 41C4 21.67 23.698 6 47.997 6C72.296 6 91 15.3004 91 34.6304Z" fill="#FFD54F"/>
<path d="M47.997 7.5C59.988 7.5 70.432 9.8001 77.825 14.3501C85.147 18.8501 89.5 25.5504 89.5 34.6304C89.5 43.8404 85.029 53.82 77.536 61.52C70.058 69.2 59.679 74.5 47.997 74.5C24.188 74.5 5.5 59.2 5.5 41C5.5 22.8 24.188 7.5 47.997 7.5Z" stroke="black" stroke-width="3"/>
</g>
<path d="M50.533 31.3804C48.521 39.0104 47.213 45.8002 46.607 51.7402L41.686 53.0303L44.264 37.8804L40.426 38.4702L41.217 32.9004L50.533 31.3804Z" fill="black"/>
</g>
<defs>
<filter id="filter0_d_1_248" x="0" y="0" width="95" height="78" filterUnits="userSpaceOnUse" color-interpolation-filters="sRGB">
<feFlood flood-opacity="0" result="BackgroundImageFix"/>
<feColorMatrix in="SourceAlpha" type="matrix" values="0 0 0 0 0 0 0 0 0 0 0 0 0 0 0 0 0 0 127 0" result="hardAlpha"/>
<feOffset dy="-2"/>
<feGaussianBlur stdDeviation="2"/>
<feComposite in2="hardAlpha" operator="out"/>
<feColorMatrix type="matrix" values="0 0 0 0 0 0 0 0 0 0 0 0 0 0 0 0 0 0 0.25 0"/>
<feBlend mode="normal" in2="BackgroundImageFix" result="effect1_dropShadow_1_248"/>
<feBlend mode="normal" in="SourceGraphic" in2="effect1_dropShadow_1_248" result="shape"/>
</filter>
<filter id="filter1_d_1_248" x="4" y="6" width="93" height="80" filterUnits="userSpaceOnUse" color-interpolation-filters="sRGB">
<feFlood flood-opacity="0" result="BackgroundImageFix"/>
<feColorMatrix in="SourceAlpha" type="matrix" values="0 0 0 0 0 0 0 0 0 0 0 0 0 0 0 0 0 0 127 0" result="hardAlpha"/>
<feOffset dx="6" dy="10"/>
<feComposite in2="hardAlpha" operator="out"/>
<feColorMatrix type="matrix" values="0 0 0 0 0 0 0 0 0 0 0 0 0 0 0 0 0 0 0.75 0"/>
<feBlend mode="normal" in2="BackgroundImageFix" result="effect1_dropShadow_1_248"/>
<feBlend mode="normal" in="SourceGraphic" in2="effect1_dropShadow_1_248" result="shape"/>
</filter>
</defs>
</svg>
