<svg width="264" height="141" viewBox="0 0 264 141" fill="none" xmlns="http://www.w3.org/2000/svg">
<path d="M62.6007 100.062C57.1807 101.552 51.2207 102.342 44.9807 102.292C20.0007 102.072 -0.139275 88.3118 0.000725489 71.5718C0.0907255 61.2518 7.84071 52.2218 19.6107 46.8418C22.1907 34.3018 34.7307 22.1818 51.9507 17.0618C60.0207 14.6618 67.9907 14.1319 75.0707 15.2019C79.0507 10.7419 84.0507 8.10185 89.4807 8.15185C92.8107 8.18185 95.9807 9.23178 98.8307 11.0818C105.671 4.20179 115.721 -0.0982928 126.881 0.0017072C140.411 0.121707 152.191 6.6718 158.571 16.3518C166.371 10.1718 177.291 6.3917 189.351 6.4917C212.731 6.7017 231.591 21.4717 231.611 39.5417C248.091 42.4817 260.091 51.5018 260.001 62.0718C259.941 68.6218 255.261 74.4918 247.781 78.6418C246.131 89.4618 238.461 97.6217 229.321 97.5417C225.351 97.5117 221.681 95.9217 218.681 93.2517C214.031 101.842 202.571 107.862 189.221 107.742C182.491 107.682 176.261 106.062 171.161 103.372C164.961 109.822 156.361 113.342 147.321 112.222C142.461 111.612 138.021 109.732 134.261 106.912C127.791 110.782 119.771 113.202 111.021 113.472C101.751 113.752 93.1407 111.572 86.2607 107.702L56.3207 130.572L62.6007 100.062ZM73.6708 95.6919C73.2108 95.9419 72.7407 96.1819 72.2607 96.4219L75.7007 98.7217C74.9507 97.7417 74.2708 96.7319 73.6708 95.6919Z" fill="#FFD54F"/>
<mask id="mask0_9_6" style="mask-type:luminance" maskUnits="userSpaceOnUse" x="0" y="0" width="261" height="131">
<path d="M62.6007 100.062C57.1807 101.552 51.2207 102.342 44.9807 102.292C20.0007 102.072 -0.139275 88.3118 0.000725489 71.5718C0.0907255 61.2518 7.84071 52.2218 19.6107 46.8418C22.1907 34.3018 34.7307 22.1818 51.9507 17.0618C60.0207 14.6618 67.9907 14.1319 75.0707 15.2019C79.0507 10.7419 84.0507 8.10185 89.4807 8.15185C92.8107 8.18185 95.9807 9.23178 98.8307 11.0818C105.671 4.20179 115.721 -0.0982928 126.881 0.0017072C140.411 0.121707 152.191 6.6718 158.571 16.3518C166.371 10.1718 177.291 6.3917 189.351 6.4917C212.731 6.7017 231.591 21.4717 231.611 39.5417C248.091 42.4817 260.091 51.5018 260.001 62.0718C259.941 68.6218 255.261 74.4918 247.781 78.6418C246.131 89.4618 238.461 97.6217 229.321 97.5417C225.351 97.5117 221.681 95.9217 218.681 93.2517C214.031 101.842 202.571 107.862 189.221 107.742C182.491 107.682 176.261 106.062 171.161 103.372C164.961 109.822 156.361 113.342 147.321 112.222C142.461 111.612 138.021 109.732 134.261 106.912C127.791 110.782 119.771 113.202 111.021 113.472C101.751 113.752 93.1407 111.572 86.2607 107.702L56.3207 130.572L62.6007 100.062ZM73.6708 95.6919C73.2108 95.9419 72.7407 96.1819 72.2607 96.4219L75.7007 98.7217C74.9507 97.7417 74.2708 96.7319 73.6708 95.6919Z" fill="white"/>
</mask>
<g mask="url(#mask0_9_6)">
<path d="M62.6008 100.062L66.5208 100.872L67.8307 94.4816L61.5408 96.2018L62.6008 100.062ZM19.6108 46.8417L21.2708 50.4816L23.1208 49.6418L23.5308 47.6518L19.6108 46.8417ZM75.0707 15.2018L74.4808 19.1518L76.6208 19.4716L78.0608 17.8618L75.0707 15.2018ZM98.8307 11.0817L96.6508 14.4318L99.3708 16.2116L101.661 13.9018L98.8307 11.0817ZM158.571 16.3517L155.241 18.5517L157.641 22.1918L161.061 19.4816L158.571 16.3517ZM231.611 39.5417L227.611 39.5517L227.621 42.8918L230.911 43.4816L231.611 39.5417ZM247.781 78.6418L245.841 75.1418L244.121 76.0917L243.821 78.0317L247.781 78.6418ZM218.681 93.2516L221.341 90.2617L217.571 86.9018L215.161 91.3417L218.681 93.2516ZM171.161 103.372L173.031 99.8317L170.371 98.4218L168.281 100.592L171.161 103.372ZM134.261 106.912L136.661 103.702L134.511 102.092L132.201 103.472L134.261 106.912ZM86.2608 107.702L88.2208 104.212L85.9308 102.922L83.8307 104.522L86.2608 107.702ZM56.3207 130.572L52.4008 129.762L50.2508 140.242L58.7508 133.742L56.3207 130.572ZM73.6708 95.6918L77.1308 93.6918L75.1907 90.3317L71.7708 92.1618L73.6708 95.6918ZM72.2608 96.4218L70.4808 92.8317L64.3008 95.9018L70.0308 99.7416L72.2608 96.4218ZM75.7007 98.7216L73.4708 102.042L78.8708 96.2917L75.7007 98.7216ZM62.6008 100.062L61.5408 96.2018C56.4908 97.5918 50.9008 98.3417 45.0108 98.2917L44.9808 102.292L44.9407 106.292C51.5407 106.342 57.8708 105.502 63.6608 103.922L62.6008 100.062ZM44.9808 102.292L45.0108 98.2917C33.2108 98.1817 22.7307 94.8717 15.3307 89.8217C7.90074 84.7517 3.95078 78.2317 4.00078 71.6017L0.000785351 71.5717L-3.99921 71.5317C-4.07921 81.6517 1.96084 90.3818 10.8108 96.4318C19.6908 102.492 31.7707 106.172 44.9407 106.292L44.9808 102.292ZM0.000785351 71.5717L4.00078 71.6017C4.07078 63.4517 10.2508 55.5116 21.2708 50.4816L19.6108 46.8417L17.9507 43.2018C5.42074 48.9218 -3.89921 59.0617 -3.99921 71.5317L0.000785351 71.5717ZM19.6108 46.8417L23.5308 47.6518C25.7208 36.9918 36.7908 25.7418 53.0908 20.8918L51.9507 17.0617L50.8108 13.2216C32.6608 18.6216 18.6707 31.6117 15.6907 46.0317L19.6108 46.8417ZM51.9507 17.0617L53.0908 20.8918C60.6308 18.6518 68.0108 18.1818 74.4808 19.1518L75.0707 15.2018L75.6708 11.2416C67.9708 10.0916 59.4008 10.6716 50.8108 13.2216L51.9507 17.0617ZM75.0707 15.2018L78.0608 17.8618C81.4508 14.0618 85.4207 12.1218 89.4407 12.1518L89.4808 8.15179L89.5108 4.15179C82.6808 4.09179 76.6408 7.43167 72.0908 12.5317L75.0707 15.2018ZM89.4808 8.15179L89.4407 12.1518C91.9407 12.1718 94.3708 12.9518 96.6508 14.4318L98.8307 11.0817L101.011 7.73163C97.5908 5.50163 93.6908 4.19179 89.5108 4.15179L89.4808 8.15179ZM98.8307 11.0817L101.661 13.9018C107.731 7.81179 116.731 3.91164 126.851 4.00165L126.881 0.00164509L126.921 -3.99835C114.711 -4.10835 103.621 0.591655 95.9908 8.26165L98.8307 11.0817ZM126.881 0.00164509L126.851 4.00165C139.121 4.10165 149.631 10.0517 155.241 18.5517L158.571 16.3517L161.911 14.1418C154.751 3.29178 141.701 -3.86835 126.921 -3.99835L126.881 0.00164509ZM158.571 16.3517L161.061 19.4816C168.071 13.9316 178.081 10.3916 189.311 10.4916L189.351 6.49164L189.381 2.49164C176.491 2.38164 164.661 6.42161 156.091 13.2116L158.571 16.3517ZM189.351 6.49164L189.311 10.4916C211.501 10.6916 227.591 24.5517 227.611 39.5517L231.611 39.5417L235.611 39.5317C235.581 18.4017 213.961 2.71164 189.381 2.49164L189.351 6.49164ZM231.611 39.5417L230.911 43.4816C238.661 44.8616 245.131 47.6417 249.561 51.0917C253.991 54.5617 256.031 58.3917 256.001 62.0417L260.001 62.0717L264.001 62.1017C264.061 55.1717 260.141 49.2117 254.481 44.7917C248.811 40.3617 241.041 37.1617 232.321 35.6017L231.611 39.5417ZM260.001 62.0717L256.001 62.0417C255.961 66.5317 252.711 71.3318 245.841 75.1418L247.781 78.6418L249.721 82.1318C257.821 77.6418 263.931 70.7017 264.001 62.1017L260.001 62.0717ZM247.781 78.6418L243.821 78.0317C242.371 87.6117 235.861 93.6017 229.351 93.5417L229.321 97.5417L229.281 101.542C241.071 101.652 249.901 91.3116 251.731 79.2416L247.781 78.6418ZM229.321 97.5417L229.351 93.5417C226.471 93.5217 223.711 92.3717 221.341 90.2617L218.681 93.2516L216.021 96.2416C219.651 99.4716 224.221 101.502 229.281 101.542L229.321 97.5417ZM218.681 93.2516L215.161 91.3417C211.401 98.2817 201.571 103.852 189.261 103.742L189.221 107.742L189.191 111.742C203.571 111.862 216.651 105.402 222.201 95.1518L218.681 93.2516ZM189.221 107.742L189.261 103.742C183.131 103.682 177.541 102.212 173.031 99.8317L171.161 103.372L169.291 106.902C174.991 109.912 181.851 111.672 189.191 111.742L189.221 107.742ZM171.161 103.372L168.281 100.592C162.851 106.242 155.461 109.202 147.811 108.252L147.321 112.222L146.821 116.182C157.251 117.492 167.071 113.402 174.051 106.142L171.161 103.372ZM147.321 112.222L147.811 108.252C143.681 107.732 139.901 106.132 136.661 103.702L134.261 106.912L131.861 110.112C136.151 113.322 141.231 115.492 146.821 116.182L147.321 112.222ZM134.261 106.912L132.201 103.472C126.351 106.982 118.991 109.222 110.901 109.472L111.021 113.472L111.141 117.462C120.541 117.182 129.241 114.582 136.311 110.342L134.261 106.912ZM111.021 113.472L110.901 109.472C102.311 109.732 94.4408 107.712 88.2208 104.212L86.2608 107.702L84.3008 111.182C91.8508 115.442 101.181 117.772 111.141 117.462L111.021 113.472ZM86.2608 107.702L83.8307 104.522L53.8908 127.392L56.3207 130.572L58.7508 133.742L88.6907 110.882L86.2608 107.702ZM56.3207 130.572L60.2408 131.372L66.5208 100.872L62.6008 100.062L58.6808 99.2516L52.4008 129.762L56.3207 130.572ZM73.6708 95.6918L71.7708 92.1618C71.3508 92.3918 70.9208 92.6117 70.4808 92.8317L72.2608 96.4218L74.0308 100.002C74.5508 99.7416 75.0608 99.4816 75.5608 99.2116L73.6708 95.6918ZM72.2608 96.4218L70.0308 99.7416L73.4708 102.042L75.7007 98.7216L77.9208 95.4018L74.4808 93.0917L72.2608 96.4218ZM75.7007 98.7216L78.8708 96.2917C78.2308 95.4517 77.6508 94.5818 77.1308 93.6918L73.6708 95.6918L70.2007 97.6918C70.9007 98.8918 71.6708 100.042 72.5208 101.152L75.7007 98.7216Z" fill="black"/>
</g>
<path d="M109.641 45.7917C111.711 45.7917 113.181 46.9517 114.041 49.2517C114.491 50.4417 114.711 51.7519 114.711 53.1819C114.711 54.5419 114.501 56.0318 114.091 57.6318C113.371 60.3718 112.121 62.8819 110.341 65.1919C108.181 68.0019 105.881 69.4119 103.461 69.4119C101.371 69.4119 99.8907 68.2619 99.0107 65.9519C98.5807 64.8219 98.3607 63.5518 98.3607 62.1418C98.3607 60.7618 98.5807 59.2518 99.0107 57.6318C99.7307 54.8818 100.971 52.3517 102.731 50.0417C104.901 47.2117 107.201 45.7917 109.641 45.7917ZM108.591 53.0618C107.511 53.0618 106.421 53.9419 105.311 55.7019C104.411 57.0819 103.781 58.4417 103.431 59.7717C103.251 60.4717 103.171 61.1119 103.171 61.6719C103.171 62.4719 103.361 63.1318 103.751 63.6418C104.201 64.2018 104.831 64.4917 105.631 64.4917C106.721 64.4917 107.711 63.9117 108.591 62.7617C109.291 61.8417 109.801 60.7617 110.111 59.5117C110.481 58.0417 110.561 56.6019 110.341 55.1719C110.111 53.7619 109.521 53.0618 108.591 53.0618ZM116.091 48.0217L121.131 47.0818C120.661 48.8018 120.321 50.1619 120.131 51.1619C121.831 49.6719 123.381 48.2518 124.791 46.8818L128.481 49.2817L122.711 54.4119L125.931 66.3318L120.661 69.1418L118.611 58.1018C118.001 61.2418 117.511 64.3619 117.141 67.4519L112.511 68.7317L116.091 48.0217ZM123.151 69.0918C126.021 61.7618 128.341 54.7019 130.121 47.9019L139.031 46.4119C138.011 52.3319 137.551 59.3319 137.651 67.4219L131.441 68.8518L131.881 65.1919L129.911 65.5718L129.301 68.1519L123.151 69.0918ZM132.351 61.2617L133.691 50.1919H133.661L130.911 61.5317L132.351 61.2617ZM140.931 48.0217L145.971 47.0818C145.501 48.8018 145.171 50.1619 144.971 51.1619C146.671 49.6719 148.231 48.2518 149.631 46.8818L153.321 49.2817L147.551 54.4119L150.771 66.3318L145.501 69.1418L143.451 58.1018C142.841 61.2418 142.361 64.3619 141.991 67.4519L137.361 68.7317L140.931 48.0217ZM155.961 63.9019C156.551 63.9019 157.051 64.0618 157.481 64.3718C157.931 64.6818 158.161 65.1219 158.161 65.6919C158.161 66.5919 157.691 67.4119 156.751 68.1519C155.831 68.8719 154.831 69.2317 153.731 69.2317C153.151 69.2317 152.651 69.1018 152.241 68.8218C151.771 68.4918 151.541 68.0517 151.541 67.5017C151.541 66.6117 151.991 65.7917 152.911 65.0417C153.851 64.2817 154.871 63.9019 155.961 63.9019ZM164.571 63.9019C165.161 63.9019 165.671 64.0618 166.101 64.3718C166.551 64.6818 166.771 65.1219 166.771 65.6919C166.771 66.5919 166.301 67.4119 165.361 68.1519C164.451 68.8719 163.441 69.2317 162.351 69.2317C161.761 69.2317 161.261 69.1018 160.851 68.8218C160.381 68.4918 160.151 68.0517 160.151 67.5017C160.151 66.6117 160.611 65.7917 161.531 65.0417C162.461 64.2817 163.481 63.9019 164.571 63.9019Z" fill="black"/>
</svg>
