<svg width="307" height="162" viewBox="0 0 307 162" fill="none" xmlns="http://www.w3.org/2000/svg">
<path d="M188.84 0C241.81 0 284.75 21.04 284.75 47C284.75 49.41 284.38 51.7801 283.66 54.1001C295.9 59.9701 303.73 68.94 303.73 79C303.73 96.67 279.58 111 249.78 111C249.5 111 249.23 111 248.95 110.99C236.4 120.01 214.17 126 188.84 126C167.86 126 149.01 121.89 136.02 115.36C127.89 118.91 118.03 121 107.41 121C101.79 121 96.39 120.42 91.34 119.34L59.49 154.01L58.39 117.4C52.88 119.7 46.61 121 39.96 121C17.89 121 0 106.67 0 89C0 73.79 13.26 61.05 31.03 57.8C30.66 55.91 30.48 53.97 30.48 52C30.48 28.8 56.64 10 88.92 10C99.4 10 109.23 11.98 117.74 15.45C135.29 5.95995 160.64 0 188.84 0Z" fill="#FFD54F"/>
<mask id="mask0_3_3" style="mask-type:luminance" maskUnits="userSpaceOnUse" x="0" y="0" width="304" height="155">
<path d="M188.84 0C241.81 0 284.75 21.04 284.75 47C284.75 49.41 284.38 51.7801 283.66 54.1001C295.9 59.9701 303.73 68.94 303.73 79C303.73 96.67 279.58 111 249.78 111C249.5 111 249.23 111 248.95 110.99C236.4 120.01 214.17 126 188.84 126C167.86 126 149.01 121.89 136.02 115.36C127.89 118.91 118.03 121 107.41 121C101.79 121 96.39 120.42 91.34 119.34L59.49 154.01L58.39 117.4C52.88 119.7 46.61 121 39.96 121C17.89 121 0 106.67 0 89C0 73.79 13.26 61.05 31.03 57.8C30.66 55.91 30.48 53.97 30.48 52C30.48 28.8 56.64 10 88.92 10C99.4 10 109.23 11.98 117.74 15.45C135.29 5.95995 160.64 0 188.84 0Z" fill="white"/>
</mask>
<g mask="url(#mask0_3_3)">
<path d="M283.66 54.1001L280.8 53.21L280.03 55.6899L282.37 56.8L283.66 54.1001ZM248.95 110.99L248.98 107.99L247.99 107.98L247.2 108.56L248.95 110.99ZM136.02 115.36L137.37 112.68L136.11 112.05L134.82 112.61L136.02 115.36ZM91.34 119.34L91.97 116.41L90.29 116.05L89.14 117.31L91.34 119.34ZM59.49 154.01L56.49 154.1L56.71 161.47L61.7001 156.04L59.49 154.01ZM58.39 117.4L61.39 117.31L61.26 112.95L57.24 114.63L58.39 117.4ZM31.03 57.8L31.5701 60.75L34.55 60.21L33.98 57.24L31.03 57.8ZM117.74 15.45L116.61 18.23L117.92 18.77L119.17 18.0901L117.74 15.45ZM188.84 0V3C214.97 3 238.48 8.19996 255.34 16.46C272.4 24.82 281.75 35.8 281.75 47H284.75H287.75C287.75 32.24 275.63 19.7201 257.98 11.0701C240.13 2.33007 215.68 -3 188.84 -3V0ZM284.75 47H281.75C281.75 49.1 281.43 51.17 280.8 53.21L283.66 54.1001L286.53 54.99C287.33 52.4 287.75 49.73 287.75 47H284.75ZM283.66 54.1001L282.37 56.8C294.16 62.4601 300.73 70.63 300.73 79H303.73H306.73C306.73 67.25 297.65 57.4699 284.96 51.3899L283.66 54.1001ZM303.73 79H300.73C300.73 86.35 295.69 93.54 286.4 99.05C277.17 104.52 264.23 108 249.78 108V111V114C265.12 114 279.16 110.32 289.46 104.21C299.7 98.14 306.73 89.32 306.73 79H303.73ZM249.78 111V108C249.52 108 249.28 108 248.98 107.99L248.95 110.99L248.92 113.99C249.17 114 249.49 114 249.78 114V111ZM248.95 110.99L247.2 108.56C235.35 117.07 213.83 123 188.84 123V126V129C214.51 129 237.45 122.95 250.7 113.43L248.95 110.99ZM188.84 126V123C168.19 123 149.83 118.95 137.37 112.68L136.02 115.36L134.67 118.04C148.18 124.83 167.52 129 188.84 129V126ZM136.02 115.36L134.82 112.61C127.09 115.99 117.65 118 107.41 118V121V124C118.41 124 128.68 121.84 137.22 118.11L136.02 115.36ZM107.41 121V118C102 118 96.81 117.44 91.97 116.41L91.34 119.34L90.72 122.28C95.97 123.4 101.59 124 107.41 124V121ZM91.34 119.34L89.14 117.31L57.28 151.98L59.49 154.01L61.7001 156.04L93.55 121.37L91.34 119.34ZM59.49 154.01L62.49 153.92L61.39 117.31L58.39 117.4L55.39 117.49L56.49 154.1L59.49 154.01ZM58.39 117.4L57.24 114.63C52.1 116.77 46.22 118 39.96 118V121V124C47 124 53.66 122.62 59.55 120.17L58.39 117.4ZM39.96 121V118C18.89 118 3 104.43 3 89H0H-3C-3 108.92 16.89 124 39.96 124V121ZM0 89H3C3 75.7 14.7101 63.84 31.5701 60.75L31.03 57.8L30.49 54.8501C11.81 58.2701 -3 71.87 -3 89H0ZM31.03 57.8L33.98 57.24C33.65 55.52 33.48 53.78 33.48 52H30.48H27.48C27.48 54.16 27.68 56.2901 28.08 58.3701L31.03 57.8ZM30.48 52H33.48C33.48 41.61 39.33 31.94 49.35 24.74C59.36 17.54 73.34 13 88.92 13V10V7C72.23 7 56.99 11.8601 45.84 19.8701C34.71 27.8701 27.48 39.19 27.48 52H30.48ZM88.92 10V13C99.03 13 108.47 14.91 116.61 18.23L117.74 15.45L118.87 12.6699C109.99 9.04992 99.78 7 88.92 7V10ZM117.74 15.45L119.17 18.0901C136.18 8.89009 161.01 3 188.84 3V0V-3C160.27 -3 134.4 3.03006 116.31 12.8101L117.74 15.45Z" fill="black"/>
</g>
<path d="M78.53 56.3201L83.9501 55.3799C82.9801 59.1099 82.19 62.5101 81.58 65.5701L84.01 65.0801L85.51 56.3201L90.9301 55.3799C88.8601 63.3699 87.55 70.15 87 75.74L81.96 77.03L83.3101 69.0601C82.7601 69.1801 81.9301 69.3501 80.8201 69.5901C80.4501 71.9901 80.18 74.04 80.03 75.74L74.99 77.03L78.53 56.3201ZM85.59 77.3799C88.46 70.0599 90.7901 63 92.5701 56.2L101.47 54.71C100.46 60.62 100 67.62 100.1 75.71L93.88 77.1499L94.3201 73.48L92.36 73.8701L91.75 76.4399L85.59 77.3799ZM94.79 69.5601L96.14 58.48H96.11L93.36 69.8201L94.79 69.5601ZM115.92 71.3201C115.08 73.6001 114.44 75.9599 114.01 78.4099L108.36 79.29L109.21 76.1499C107.74 76.2499 106.45 76.3499 105.34 76.4399C105.07 77.3399 104.78 78.2499 104.49 79.1699L98.84 80.05L100.97 73.8401L101.33 72.6101L102.79 72.46C104.45 67.5 105.97 62.27 107.36 56.79L115.15 55.3799C114.63 58.4499 114.32 61.82 114.25 65.52C114.21 67.49 114.17 69.4499 114.13 71.3999L114.8 71.3501V71.3999L115.92 71.3201ZM107.42 72.05L108.91 71.8999L110.73 58.3401H110.7L107.42 72.05ZM125.61 54.0901C127.68 54.0901 129.15 55.24 130.01 57.55C130.46 58.74 130.68 60.05 130.68 61.47C130.68 62.84 130.48 64.3199 130.07 65.9299C129.34 68.6599 128.09 71.18 126.32 73.48C124.15 76.3 121.85 77.7 119.43 77.7C117.34 77.7 115.86 76.55 114.98 74.25C114.55 73.11 114.33 71.8399 114.33 70.4399C114.33 69.0499 114.55 67.5499 114.98 65.9299C115.7 63.1699 116.94 60.6401 118.7 58.3401C120.87 55.5101 123.17 54.0901 125.61 54.0901ZM124.56 61.3601C123.48 61.3601 122.39 62.23 121.28 63.99C120.38 65.38 119.75 66.7401 119.4 68.0601C119.23 68.7701 119.14 69.4 119.14 69.97C119.14 70.77 119.33 71.4199 119.72 71.9299C120.17 72.4999 120.8 72.78 121.6 72.78C122.69 72.78 123.68 72.21 124.56 71.05C125.26 70.13 125.77 69.05 126.08 67.8C126.45 66.34 126.53 64.89 126.32 63.46C126.08 62.06 125.5 61.3601 124.56 61.3601ZM136.04 59.74C136.55 58.77 136.98 57.9999 137.33 57.4299C138.33 55.9499 139.66 55.1501 141.32 55.0601C141.49 55.0601 141.67 55.0701 141.84 55.0901C143.37 55.1601 144.85 56.6999 146.3 59.6899C146.61 60.3499 146.77 60.9999 146.77 61.6499C146.77 62.9599 146.08 64.25 144.71 65.52C146.47 66.49 147.35 67.7601 147.35 69.3201C147.35 70.0901 147.15 70.91 146.74 71.79C145.74 73.99 144.43 75.5801 142.81 76.5601C141.66 77.2401 140.13 77.5901 138.24 77.5901C136.5 77.5901 135.2 77.1099 134.34 76.1499C134.62 73.8999 134.89 71.6599 135.16 69.4099C136.67 71.2699 138.14 72.2 139.59 72.2C140.19 72.2 140.71 72.15 141.14 72.05C141.63 71.93 142.01 71.7099 142.28 71.3799C142.71 70.8499 142.93 70.3599 142.93 69.9099C142.93 68.2099 141.75 67.4 139.38 67.48C139.29 67.48 139.19 67.48 139.09 67.48L139.56 63.8501C139.89 63.9201 140.19 63.96 140.47 63.96C141.83 63.96 142.53 63.07 142.55 61.3C142.55 60.5 142.07 60.0901 141.11 60.0701C141.09 60.0701 141.08 60.0701 141.08 60.0701C140.59 60.0701 140.18 60.5299 139.85 61.4399L137.95 60.5901C137.07 60.2001 136.43 59.92 136.04 59.74ZM145.07 77.3799C147.94 70.0599 150.26 63 152.04 56.2L160.95 54.71C159.93 60.62 159.47 67.62 159.57 75.71L153.36 77.1499L153.8 73.48L151.83 73.8701L151.22 76.4399L145.07 77.3799ZM154.27 69.5601L155.61 58.48H155.58L152.83 69.8201L154.27 69.5601ZM162.76 56.29C165.79 55.37 168.27 54.9099 170.2 54.9099C172.84 54.9099 174.14 55.8299 174.1 57.6599C174.04 61.3599 170.94 65.1701 164.78 69.1201C164.35 71.5001 164.04 73.71 163.85 75.74L159.19 77.03C159.25 76.6 159.48 75.2901 159.89 73.1001L161.18 66.1599C162.33 59.7699 162.86 56.48 162.76 56.29ZM166.45 60.97C166.32 61.52 166.19 62.0701 166.07 62.6201L165.75 64.23C167.57 63.33 168.74 62.3799 169.27 61.3799C169.34 61.2299 169.38 61.1 169.38 61C169.38 60.67 169.14 60.51 168.65 60.51C168.18 60.51 167.45 60.66 166.45 60.97ZM167.8 77.3799C170.67 70.0599 173 63 174.77 56.2L183.68 54.71C182.66 60.62 182.2 67.62 182.3 75.71L176.09 77.1499L176.53 73.48L174.57 73.8701L173.95 76.4399L167.8 77.3799ZM177 69.5601L178.35 58.48H178.32L175.56 69.8201L177 69.5601ZM185.64 56.3201L191.06 55.3799C190.09 59.1099 189.29 62.5101 188.69 65.5701L191.12 65.0801L192.62 56.3201L198.04 55.3799C195.96 63.3699 194.66 70.15 194.11 75.74L189.07 77.03L190.42 69.0601C189.87 69.1801 189.04 69.3501 187.93 69.5901C187.56 71.9901 187.29 74.04 187.14 75.74L182.1 77.03L185.64 56.3201ZM202.4 60.6799C202.24 61.2499 202.11 61.8001 201.99 62.3501L201.67 63.96L206.36 62.97L206.09 67.01C203.87 67.4 202.12 67.74 200.85 68.04C200.77 68.43 200.7 68.82 200.64 69.21L200.44 70.3501L205.89 69.5601L205.51 75.01C202.69 75.24 199.13 75.92 194.81 77.03L198.3 56.02L208.05 54.6201L207.67 60.04C205.76 60.21 204 60.4299 202.4 60.6799ZM213.21 60.6799C213.05 61.2499 212.92 61.8001 212.8 62.3501L212.48 63.96L217.17 62.97L216.9 67.01C214.68 67.4 212.93 67.74 211.66 68.04C211.58 68.43 211.51 68.82 211.45 69.21L211.25 70.3501L216.7 69.5601L216.32 75.01C213.5 75.24 209.94 75.92 205.62 77.03L209.11 56.02L218.87 54.6201L218.48 60.04C216.57 60.21 214.81 60.4299 213.21 60.6799ZM220.59 72.22C221.28 72.13 221.88 72.22 222.41 72.52C223.04 72.83 223.35 73.32 223.35 73.98C223.35 74.88 222.87 75.6999 221.91 76.4399C221.17 77.0299 220.36 77.38 219.48 77.5C218.78 77.6 218.17 77.52 217.66 77.26C217.06 76.95 216.76 76.46 216.76 75.8C216.76 74.9 217.21 74.0701 218.13 73.3101C218.87 72.7001 219.7 72.34 220.59 72.22ZM223.9 54L230.03 55.03C228.41 57.94 227.21 60.2101 226.45 61.8501C225.42 64.1001 224.5 66.5299 223.7 69.1499L219.63 68.97L223.9 54Z" fill="black"/>
</svg>
