<svg width="309" height="170" viewBox="0 0 309 170" fill="none" xmlns="http://www.w3.org/2000/svg">
<path d="M126.86 0C144.99 0 161.31 5.74 171.68 14.88C179.53 11.16 188.78 9.02002 198.65 9.02002C219.96 9.02002 238.65 19.02 246.27 33.75C253.04 31.51 259.28 30.28 264.44 30.29C270.01 30.29 275.06 31.76 277.61 35.83C279.32 38.57 279.46 41.84 278.67 45.15C278.07 47.64 276.92 50.28 275.32 52.99C292.68 60.07 305 73.8 305 90.14C305 102.17 298.26 112.84 287.82 120.41C277.37 127.98 263.06 132.59 247.37 132.59C243.01 132.59 238.75 132.23 234.66 131.55C227.3 139.48 215.78 146.05 201.76 150.69C187.08 155.55 169.48 158.36 150.58 158.36C125.03 158.36 101.79 153.21 84.97 144.78C78.84 151.72 68.87 158.64 60.39 161.87C55.73 163.64 47.6001 165.29 39.9301 165.82C36.0801 166.09 32.2401 166.08 28.9301 165.63C25.7401 165.19 22.56 164.27 20.53 162.33L18.21 160.12L20.9301 158.41C29.3901 153.1 36.45 146.65 42.41 138.21C47.08 130.68 47.55 127.92 48.14 125.34C40.77 124.14 34.24 121.9 29.13 118.7C23.34 115.08 19.23 110.11 18.1 103.97C17.46 100.48 17.86 96.98 19.08 93.61C7.69996 87.11 0 77.49 0 66.29C0 55.68 6.93996 46.46 17.33 40.02C27.76 33.56 42.02 29.64 57.63 29.64C62.42 29.64 67.07 30.01 71.53 30.71C73.98 22.05 80.7101 14.6401 89.8 9.31006C99.7401 3.48006 112.72 0 126.86 0Z" fill="#FFD54F"/>
<mask id="mask0_20_4" style="mask-type:luminance" maskUnits="userSpaceOnUse" x="0" y="0" width="305" height="167">
<path d="M126.86 0C144.99 0 161.31 5.74 171.68 14.88C179.53 11.16 188.78 9.02002 198.65 9.02002C219.96 9.02002 238.65 19.02 246.27 33.75C253.04 31.51 259.28 30.28 264.44 30.29C270.01 30.29 275.06 31.76 277.61 35.83C279.32 38.57 279.46 41.84 278.67 45.15C278.07 47.64 276.92 50.28 275.32 52.99C292.68 60.07 305 73.8 305 90.14C305 102.17 298.26 112.84 287.82 120.41C277.37 127.98 263.06 132.59 247.37 132.59C243.01 132.59 238.75 132.23 234.66 131.55C227.3 139.48 215.78 146.05 201.76 150.69C187.08 155.55 169.48 158.36 150.58 158.36C125.03 158.36 101.79 153.21 84.97 144.78C78.84 151.72 68.87 158.64 60.39 161.87C55.73 163.64 47.6001 165.29 39.9301 165.82C36.0801 166.09 32.2401 166.08 28.9301 165.63C25.7401 165.19 22.56 164.27 20.53 162.33L18.21 160.12L20.9301 158.41C29.3901 153.1 36.45 146.65 42.41 138.21C47.08 130.68 47.55 127.92 48.14 125.34C40.77 124.14 34.24 121.9 29.13 118.7C23.34 115.08 19.23 110.11 18.1 103.97C17.46 100.48 17.86 96.98 19.08 93.61C7.69996 87.11 0 77.49 0 66.29C0 55.68 6.93996 46.46 17.33 40.02C27.76 33.56 42.02 29.64 57.63 29.64C62.42 29.64 67.07 30.01 71.53 30.71C73.98 22.05 80.7101 14.6401 89.8 9.31006C99.7401 3.48006 112.72 0 126.86 0Z" fill="white"/>
</mask>
<g mask="url(#mask0_20_4)">
<path d="M171.68 14.88L169.03 17.88L171.01 19.62L173.39 18.49L171.68 14.88ZM246.27 33.75L242.71 35.59L244.28 38.62L247.52 37.55L246.27 33.75ZM275.32 52.99L271.87 50.95L269.52 54.9399L273.81 56.6899L275.32 52.99ZM234.66 131.55L235.31 127.61L233.19 127.26L231.73 128.83L234.66 131.55ZM84.97 144.78L86.76 141.21L84.01 139.83L81.97 142.14L84.97 144.78ZM18.21 160.12L16.09 156.73L11.73 159.46L15.45 163.01L18.21 160.12ZM42.41 138.21L45.6801 140.52L45.75 140.42L45.8101 140.31L42.41 138.21ZM48.14 125.34L52.04 126.23L52.99 122.08L48.78 121.39L48.14 125.34ZM19.08 93.61L22.84 94.97L24 91.8L21.0699 90.13L19.08 93.61ZM71.53 30.71L70.91 34.66L74.41 35.21L75.38 31.8L71.53 30.71ZM126.86 0V4C144.23 4 159.54 9.51 169.03 17.88L171.68 14.88L174.32 11.88C163.08 1.97001 145.75 -4 126.86 -4V0ZM171.68 14.88L173.39 18.49C180.69 15.03 189.35 13.02 198.65 13.02V9.02002V5.02002C188.21 5.02002 178.37 7.28002 169.96 11.27L171.68 14.88ZM198.65 9.02002V13.02C218.89 13.02 235.95 22.52 242.71 35.59L246.27 33.75L249.82 31.91C241.34 15.52 221.04 5.02002 198.65 5.02002V9.02002ZM246.27 33.75L247.52 37.55C254.06 35.3801 259.85 34.29 264.43 34.29L264.44 30.29V26.29C258.7 26.28 252.02 27.63 245.01 29.95L246.27 33.75ZM264.44 30.29L264.43 34.29C269.59 34.29 272.79 35.67 274.21 37.95L277.61 35.83L281 33.71C277.33 27.84 270.44 26.29 264.44 26.29V30.29ZM277.61 35.83L274.21 37.95C275.17 39.4799 275.42 41.55 274.78 44.21L278.67 45.15L282.56 46.08C283.51 42.13 283.46 37.65 281 33.71L277.61 35.83ZM278.67 45.15L274.78 44.21C274.3 46.21 273.33 48.47 271.87 50.95L275.32 52.99L278.76 55.02C280.5 52.08 281.84 49.06 282.56 46.08L278.67 45.15ZM275.32 52.99L273.81 56.6899C290.29 63.4199 301 76.02 301 90.14H305H309C309 71.59 295.06 56.73 276.83 49.28L275.32 52.99ZM305 90.14H301C301 100.57 295.17 110.15 285.47 117.17L287.82 120.41L290.17 123.65C301.36 115.54 309 103.77 309 90.14H305ZM287.82 120.41L285.47 117.17C275.78 124.2 262.31 128.59 247.37 128.59V132.59V136.59C263.81 136.59 278.97 131.77 290.17 123.65L287.82 120.41ZM247.37 132.59V128.59C243.23 128.59 239.19 128.25 235.31 127.61L234.66 131.55L234.01 135.5C238.32 136.21 242.79 136.59 247.37 136.59V132.59ZM234.66 131.55L231.73 128.83C224.99 136.09 214.15 142.37 200.51 146.89L201.76 150.69L203.02 154.48C217.41 149.72 229.61 142.87 237.59 134.28L234.66 131.55ZM201.76 150.69L200.51 146.89C186.28 151.6 169.1 154.36 150.58 154.36V158.36V162.36C169.86 162.36 187.89 159.49 203.02 154.48L201.76 150.69ZM150.58 158.36V154.36C125.51 154.36 102.91 149.3 86.76 141.21L84.97 144.78L83.1801 148.36C100.67 157.12 124.55 162.36 150.58 162.36V158.36ZM84.97 144.78L81.97 142.14C76.27 148.59 66.83 155.14 58.97 158.13L60.39 161.87L61.8101 165.61C70.9001 162.15 81.42 154.85 87.97 147.43L84.97 144.78ZM60.39 161.87L58.97 158.13C54.78 159.72 47.06 161.32 39.65 161.83L39.9301 165.82L40.21 169.81C48.13 169.26 56.6801 167.56 61.8101 165.61L60.39 161.87ZM39.9301 165.82L39.66 161.83C35.96 162.09 32.42 162.07 29.48 161.66L28.9301 165.63L28.39 169.59C32.06 170.09 36.2 170.09 40.21 169.81L39.9301 165.82ZM28.9301 165.63L29.48 161.66C26.47 161.25 24.37 160.47 23.3 159.44L20.53 162.33L17.77 165.23C20.75 168.08 25.01 169.13 28.39 169.59L28.9301 165.63ZM20.53 162.33L23.3 159.44L20.97 157.22L18.21 160.12L15.45 163.01L17.77 165.23L20.53 162.33ZM18.21 160.12L20.34 163.5L23.0601 161.8L20.9301 158.41L18.8101 155.02L16.09 156.73L18.21 160.12ZM20.9301 158.41L23.0601 161.8C31.9301 156.23 39.3901 149.42 45.6801 140.52L42.41 138.21L39.15 135.9C33.51 143.88 26.8501 149.97 18.8101 155.02L20.9301 158.41ZM42.41 138.21L45.8101 140.31C48.2301 136.42 49.64 133.63 50.53 131.39C51.43 129.11 51.76 127.48 52.04 126.23L48.14 125.34L44.24 124.45C43.94 125.78 43.73 126.82 43.09 128.44C42.43 130.1 41.27 132.46 39.01 136.1L42.41 138.21ZM48.14 125.34L48.78 121.39C41.79 120.26 35.8 118.16 31.25 115.31L29.13 118.7L27 122.09C32.68 125.64 39.75 128.03 47.5 129.29L48.14 125.34ZM29.13 118.7L31.25 115.31C26.11 112.09 22.9 107.97 22.04 103.25L18.1 103.97L14.17 104.69C15.56 112.25 20.58 118.06 27 122.09L29.13 118.7ZM18.1 103.97L22.04 103.25C21.54 100.54 21.83 97.76 22.84 94.97L19.08 93.61L15.33 92.24C13.89 96.2 13.38 100.42 14.17 104.69L18.1 103.97ZM19.08 93.61L21.0699 90.13C10.3399 84.01 4 75.48 4 66.29H0H-4C-4 79.5 5.05998 90.21 17.1 97.08L19.08 93.61ZM0 66.29H4C4 57.58 9.70994 49.45 19.4399 43.42L17.33 40.02L15.22 36.62C4.16997 43.47 -4 53.78 -4 66.29H0ZM17.33 40.02L19.4399 43.42C29.1399 37.41 42.64 33.64 57.63 33.64V29.64V25.64C41.39 25.64 26.38 29.71 15.22 36.62L17.33 40.02ZM57.63 29.64V33.64C62.21 33.64 66.66 34 70.91 34.66L71.53 30.71L72.14 26.76C67.49 26.03 62.62 25.64 57.63 25.64V29.64ZM71.53 30.71L75.38 31.8C77.47 24.42 83.3299 17.74 91.8199 12.76L89.8 9.31006L87.77 5.85999C78.1 11.53 70.5001 19.68 67.6801 29.62L71.53 30.71ZM89.8 9.31006L91.8199 12.76C101.08 7.33001 113.35 4 126.86 4V0V-4C112.1 -4 98.4 -0.370015 87.77 5.85999L89.8 9.31006Z" fill="black"/>
</g>
<path d="M62.21 84.6801C64.85 78.0001 66.86 71.2 68.25 64.29L75.25 63.14L74.26 73.89L76.98 63.96L83.72 62.79C82.92 69.16 82.52 74.9 82.52 80.02C82.52 81.03 82.53 82.04 82.55 83.04L76.54 84.09L77.6 71.26L73.76 85.47L70.54 85.91L72.47 67.86L68.3101 83.86L62.21 84.6801ZM94.03 61.59C96.1 61.59 97.5701 62.74 98.4301 65.05C98.8801 66.24 99.1 67.55 99.1 68.97C99.1 70.34 98.89 71.8201 98.48 73.4301C97.76 76.1601 96.51 78.68 94.73 80.98C92.57 83.8 90.27 85.2 87.85 85.2C85.76 85.2 84.28 84.05 83.4 81.75C82.97 80.61 82.75 79.3399 82.75 77.9399C82.75 76.5499 82.97 75.0501 83.4 73.4301C84.12 70.6701 85.36 68.14 87.12 65.84C89.29 63.01 91.59 61.59 94.03 61.59ZM92.98 68.86C91.9 68.86 90.81 69.73 89.7 71.49C88.8 72.88 88.1699 74.2401 87.8199 75.5601C87.6399 76.2701 87.5601 76.9 87.5601 77.47C87.5601 78.27 87.75 78.9201 88.14 79.4301C88.59 80.0001 89.22 80.28 90.02 80.28C91.11 80.28 92.1 79.71 92.98 78.55C93.68 77.63 94.19 76.55 94.5 75.3C94.87 73.84 94.95 72.39 94.73 70.96C94.5 69.56 93.91 68.86 92.98 68.86ZM106.75 63.8199L111.79 62.88C111.32 64.6 110.98 65.96 110.79 66.95C112.25 65.53 113.71 64.1 115.15 62.67L118.85 65.08L113.37 70.2L116.3 82.13L111.02 84.9399L109.27 73.89C108.66 77.04 108.17 80.15 107.8 83.24L103.17 84.53L104.96 74.16L99.33 84.9399L95.09 82.13L102.94 70.2L98.72 65.08L103.29 62.67C104.27 64.08 105.24 65.48 106.22 66.86L106.75 63.8199ZM119.37 63.8199L124.79 62.88C123.82 66.61 123.03 70.0099 122.42 73.0699L124.85 72.58L126.35 63.8199L131.77 62.88C129.7 70.87 128.39 77.65 127.84 83.24L122.8 84.53L124.15 76.5601C123.6 76.6801 122.77 76.85 121.66 77.09C121.29 79.49 121.02 81.54 120.87 83.24L115.83 84.53L119.37 63.8199ZM140.32 61.59C142.39 61.59 143.86 62.74 144.71 65.05C145.16 66.24 145.39 67.55 145.39 68.97C145.39 70.34 145.18 71.8201 144.77 73.4301C144.05 76.1601 142.8 78.68 141.02 80.98C138.86 83.8 136.56 85.2 134.14 85.2C132.05 85.2 130.56 84.05 129.69 81.75C129.26 80.61 129.04 79.3399 129.04 77.9399C129.04 76.5499 129.26 75.0501 129.69 73.4301C130.41 70.6701 131.65 68.14 133.41 65.84C135.57 63.01 137.88 61.59 140.32 61.59ZM139.27 68.86C138.19 68.86 137.1 69.73 135.98 71.49C135.09 72.88 134.46 74.2401 134.11 75.5601C133.93 76.2701 133.85 76.9 133.85 77.47C133.85 78.27 134.04 78.9201 134.43 79.4301C134.88 80.0001 135.51 80.28 136.31 80.28C137.4 80.28 138.39 79.71 139.27 78.55C139.97 77.63 140.48 76.55 140.79 75.3C141.16 73.84 141.24 72.39 141.02 70.96C140.79 69.56 140.2 68.86 139.27 68.86ZM152.62 63.8199L158.04 62.88C157.07 66.61 156.28 70.0099 155.67 73.0699L158.1 72.58L159.6 63.8199L165.02 62.88C162.95 70.87 161.64 77.65 161.09 83.24L156.05 84.53L157.4 76.5601C156.85 76.6801 156.02 76.85 154.91 77.09C154.54 79.49 154.28 81.54 154.12 83.24L149.08 84.53L152.62 63.8199ZM169.38 68.1801C169.23 68.7501 169.09 69.3 168.97 69.85L168.65 71.46L173.34 70.47L173.07 74.51C170.85 74.9 169.1 75.24 167.83 75.54C167.75 75.93 167.68 76.32 167.62 76.71L167.42 77.85L172.87 77.0601L172.49 82.51C169.68 82.74 166.11 83.42 161.79 84.53L165.28 63.52L175.04 62.12L174.66 67.54C172.74 67.71 170.98 67.9301 169.38 68.1801ZM182.19 63.8199L187.61 62.88C186.63 66.61 185.84 70.0099 185.23 73.0699L187.66 72.58L189.16 63.8199L194.58 62.88C192.51 70.87 191.2 77.65 190.65 83.24L185.61 84.53L186.96 76.5601C186.41 76.6801 185.58 76.85 184.47 77.09C184.1 79.49 183.84 81.54 183.68 83.24L178.64 84.53L182.19 63.8199ZM189.25 84.88C192.12 77.56 194.44 70.5 196.22 63.7L205.12 62.21C204.11 68.12 203.65 75.12 203.75 83.21L197.54 84.65L197.98 80.98L196.01 81.37L195.4 83.9399L189.25 84.88ZM198.45 77.0601L199.79 65.98H199.76L197.01 77.3199L198.45 77.0601ZM219.57 78.8199C218.73 81.0999 218.09 83.46 217.66 85.91L212.01 86.79L212.86 83.65C211.39 83.75 210.11 83.8499 208.99 83.9399C208.72 84.8399 208.44 85.75 208.14 86.67L202.49 87.55L204.63 81.34L204.98 80.11L206.44 79.96C208.1 75 209.63 69.77 211.01 64.29L218.81 62.88C218.28 65.95 217.98 69.32 217.9 73.02C217.86 74.99 217.82 76.95 217.78 78.9L218.46 78.85V78.9L219.57 78.8199ZM211.07 79.55L212.57 79.4L214.38 65.84H214.35L211.07 79.55ZM229.27 61.59C231.34 61.59 232.8 62.74 233.66 65.05C234.11 66.24 234.33 67.55 234.33 68.97C234.33 70.34 234.13 71.8201 233.72 73.4301C233 76.1601 231.75 78.68 229.97 80.98C227.8 83.8 225.51 85.2 223.08 85.2C220.99 85.2 219.51 84.05 218.63 81.75C218.2 80.61 217.99 79.3399 217.99 77.9399C217.99 76.5499 218.2 75.0501 218.63 73.4301C219.35 70.6701 220.59 68.14 222.35 65.84C224.52 63.01 226.82 61.59 229.27 61.59ZM228.21 68.86C227.14 68.86 226.04 69.73 224.93 71.49C224.03 72.88 223.41 74.2401 223.05 75.5601C222.88 76.2701 222.79 76.9 222.79 77.47C222.79 78.27 222.99 78.9201 223.38 79.4301C223.83 80.0001 224.45 80.28 225.25 80.28C226.35 80.28 227.33 79.71 228.21 78.55C228.91 77.63 229.42 76.55 229.73 75.3C230.11 73.84 230.18 72.39 229.97 70.96C229.73 69.56 229.15 68.86 228.21 68.86ZM237.85 79.7C238.44 79.7 238.94 79.85 239.37 80.16C239.82 80.48 240.05 80.92 240.05 81.48C240.05 82.38 239.58 83.1999 238.64 83.9399C237.72 84.6699 236.72 85.03 235.62 85.03C235.04 85.03 234.54 84.89 234.13 84.62C233.66 84.29 233.43 83.85 233.43 83.3C233.43 82.4 233.88 81.58 234.8 80.84C235.74 80.08 236.76 79.7 237.85 79.7ZM246.46 79.7C247.05 79.7 247.56 79.85 247.99 80.16C248.44 80.48 248.66 80.92 248.66 81.48C248.66 82.38 248.19 83.1999 247.25 83.9399C246.34 84.6699 245.33 85.03 244.24 85.03C243.65 85.03 243.15 84.89 242.74 84.62C242.27 84.29 242.04 83.85 242.04 83.3C242.04 82.4 242.5 81.58 243.42 80.84C244.35 80.08 245.37 79.7 246.46 79.7ZM255.08 79.7C255.66 79.7 256.17 79.85 256.6 80.16C257.05 80.48 257.27 80.92 257.27 81.48C257.27 82.38 256.8 83.1999 255.87 83.9399C254.95 84.6699 253.94 85.03 252.85 85.03C252.26 85.03 251.77 84.89 251.36 84.62C250.89 84.29 250.65 83.85 250.65 83.3C250.65 82.4 251.11 81.58 252.03 80.84C252.97 80.08 253.98 79.7 255.08 79.7Z" fill="black"/>
</svg>
