<svg width="359" height="174" viewBox="0 0 359 174" fill="none" xmlns="http://www.w3.org/2000/svg">
<path d="M221.157 46.79C221.765 46.55 222.379 46.3201 222.998 46.1001L249.517 10.3L254.457 43.0601C254.995 43.1301 255.531 43.22 256.063 43.3L285.901 17.6599L286.368 57.1201L331.895 34.6799L312.952 68.3401L352.908 82.3899L317.291 103.86L335.819 140.12L283.739 125.49C273.571 133.42 259.96 138.27 245 138.27C240.164 138.27 235.468 137.76 230.984 136.81C221.674 142.37 210.292 145.65 198 145.65C189.199 145.65 180.865 143.97 173.423 140.97C159.15 149.2 139.804 154.25 118.5 154.25C106.662 154.25 95.429 152.69 85.334 149.89C85.059 149.93 84.781 149.95 84.5 149.95C75 149.95 65.397 161.1 55 164.7C44.603 168.29 30.001 169 30.001 169C30.001 169 34.306 161.98 39.226 153.49C16.736 150.54 0 139.35 0 125.98C0 122.21 1.33499 118.61 3.75299 115.32C1.32499 110.4 0 105.09 0 99.5601C0 74.1001 27.982 53.46 62.5 53.46C72.961 53.46 82.82 55.36 91.483 58.71C97.546 53.09 104.974 49.78 113 49.78C117.126 49.78 121.094 50.65 124.8 52.27C130.359 50.65 136.311 49.78 142.5 49.78C149.963 49.78 157.081 51.0501 163.581 53.3601C172.489 48.4701 195.218 35.7701 199 31.3401C203.724 25.8101 203.5 25.8101 209 17.8201C214.5 9.83007 216.5 0 216.5 0L221.157 46.79ZM168.406 55.3101C168.902 55.5401 169.393 55.77 169.88 56.01C170.38 55.77 170.885 55.5401 171.395 55.3101H168.406Z" fill="#FFD54F"/>
<mask id="mask0_6_5" style="mask-type:luminance" maskUnits="userSpaceOnUse" x="0" y="0" width="353" height="169">
<path d="M221.157 46.79C221.765 46.55 222.379 46.3201 222.998 46.1001L249.517 10.3L254.457 43.0601C254.995 43.1301 255.531 43.22 256.063 43.3L285.901 17.6599L286.368 57.1201L331.895 34.6799L312.952 68.3401L352.908 82.3899L317.291 103.86L335.819 140.12L283.739 125.49C273.571 133.42 259.96 138.27 245 138.27C240.164 138.27 235.468 137.76 230.984 136.81C221.674 142.37 210.292 145.65 198 145.65C189.199 145.65 180.865 143.97 173.423 140.97C159.15 149.2 139.804 154.25 118.5 154.25C106.662 154.25 95.429 152.69 85.334 149.89C85.059 149.93 84.781 149.95 84.5 149.95C75 149.95 65.397 161.1 55 164.7C44.603 168.29 30.001 169 30.001 169C30.001 169 34.306 161.98 39.226 153.49C16.736 150.54 0 139.35 0 125.98C0 122.21 1.33499 118.61 3.75299 115.32C1.32499 110.4 0 105.09 0 99.5601C0 74.1001 27.982 53.46 62.5 53.46C72.961 53.46 82.82 55.36 91.483 58.71C97.546 53.09 104.974 49.78 113 49.78C117.126 49.78 121.094 50.65 124.8 52.27C130.359 50.65 136.311 49.78 142.5 49.78C149.963 49.78 157.081 51.0501 163.581 53.3601C172.489 48.4701 195.218 35.7701 199 31.3401C203.724 25.8101 203.5 25.8101 209 17.8201C214.5 9.83007 216.5 0 216.5 0L221.157 46.79ZM168.406 55.3101C168.902 55.5401 169.393 55.77 169.88 56.01C170.38 55.77 170.885 55.5401 171.395 55.3101H168.406Z" fill="white"/>
</mask>
<g mask="url(#mask0_6_5)">
<path d="M221.157 46.79L217.177 47.1799L217.698 52.4199L222.604 50.52L221.157 46.79ZM222.998 46.1001L224.327 49.8799L225.483 49.47L226.212 48.49L222.998 46.1001ZM249.517 10.3L253.472 9.69995L252.035 0.179932L246.302 7.91992L249.517 10.3ZM254.457 43.0601L250.502 43.6599L250.947 46.6001L253.901 47.02L254.457 43.0601ZM256.063 43.3L255.411 47.25L257.254 47.5601L258.671 46.3401L256.063 43.3ZM285.901 17.6599L289.901 17.6101L289.8 9.03003L283.294 14.6201L285.901 17.6599ZM286.368 57.1201L282.368 57.1699L282.444 63.52L288.137 60.71L286.368 57.1201ZM331.895 34.6799L335.38 36.6399L341.721 25.3799L330.126 31.0901L331.895 34.6799ZM312.952 68.3401L309.466 66.3799L307.129 70.53L311.625 72.1101L312.952 68.3401ZM352.908 82.3899L354.973 85.8201L362.245 81.4399L354.236 78.6201L352.908 82.3899ZM317.291 103.86L315.227 100.43L312.032 102.35L313.729 105.68L317.291 103.86ZM335.819 140.12L334.737 143.98L343.542 146.45L339.381 138.31L335.819 140.12ZM283.739 125.49L284.821 121.64L282.875 121.1L281.28 122.34L283.739 125.49ZM230.984 136.81L231.816 132.9L230.28 132.57L228.932 133.38L230.984 136.81ZM173.423 140.97L174.916 137.26L173.111 136.54L171.426 137.51L173.423 140.97ZM85.334 149.89L86.402 146.04L85.616 145.82L84.807 145.93L85.334 149.89ZM30.001 169L26.591 166.91L22.634 173.36L30.194 173L30.001 169ZM39.226 153.49L42.686 155.5L45.695 150.3L39.745 149.52L39.226 153.49ZM3.75299 115.32L6.97601 117.69L8.41602 115.73L7.34003 113.55L3.75299 115.32ZM91.483 58.71L90.041 62.4399L92.372 63.3501L94.204 61.6499L91.483 58.71ZM124.8 52.27L123.202 55.9299L124.527 56.51L125.915 56.1101L124.8 52.27ZM163.581 53.3601L162.243 57.1299L163.933 57.73L165.505 56.8701L163.581 53.3601ZM216.5 0L220.48 -0.399902L212.58 -0.800049L216.5 0ZM168.406 55.3101V51.3101L166.744 58.95L168.406 55.3101ZM169.88 56.01L168.118 59.6001L169.857 60.45L171.605 59.6201L169.88 56.01ZM171.395 55.3101L173.02 58.97L171.395 51.3101V55.3101ZM221.157 46.79L222.604 50.52C223.179 50.29 223.753 50.0799 224.327 49.8799L222.998 46.1001L221.669 42.3301C221.004 42.5701 220.352 42.8101 219.711 43.0601L221.157 46.79ZM222.998 46.1001L226.212 48.49L252.731 12.6799L249.517 10.3L246.302 7.91992L219.784 43.72L222.998 46.1001ZM249.517 10.3L245.561 10.8899L250.502 43.6599L254.457 43.0601L258.412 42.46L253.472 9.69995L249.517 10.3ZM254.457 43.0601L253.901 47.02C254.404 47.09 254.908 47.17 255.411 47.25L256.063 43.3L256.716 39.3601C256.154 39.2701 255.586 39.1801 255.013 39.1001L254.457 43.0601ZM256.063 43.3L258.671 46.3401L288.509 20.6899L285.901 17.6599L283.294 14.6201L253.456 40.27L256.063 43.3ZM285.901 17.6599L281.902 17.71L282.368 57.1699L286.368 57.1201L290.368 57.0801L289.901 17.6101L285.901 17.6599ZM286.368 57.1201L288.137 60.71L333.663 38.27L331.895 34.6799L330.126 31.0901L284.599 53.54L286.368 57.1201ZM331.895 34.6799L328.409 32.72L309.466 66.3799L312.952 68.3401L316.438 70.3L335.38 36.6399L331.895 34.6799ZM312.952 68.3401L311.625 72.1101L351.581 86.1699L352.908 82.3899L354.236 78.6201L314.279 64.5701L312.952 68.3401ZM352.908 82.3899L350.844 78.97L315.227 100.43L317.291 103.86L319.355 107.28L354.973 85.8201L352.908 82.3899ZM317.291 103.86L313.729 105.68L332.257 141.94L335.819 140.12L339.381 138.31L320.853 102.04L317.291 103.86ZM335.819 140.12L336.901 136.27L284.821 121.64L283.739 125.49L282.657 129.35L334.737 143.98L335.819 140.12ZM283.739 125.49L281.28 122.34C271.842 129.7 259.104 134.27 245 134.27V138.27V142.27C260.815 142.27 275.299 137.15 286.199 128.65L283.739 125.49ZM245 138.27V134.27C240.444 134.27 236.028 133.79 231.816 132.9L230.984 136.81L230.152 140.72C234.909 141.73 239.883 142.27 245 142.27V138.27ZM230.984 136.81L228.932 133.38C220.256 138.56 209.585 141.65 198 141.65V145.65V149.65C210.998 149.65 223.092 146.19 233.037 140.24L230.984 136.81ZM198 145.65V141.65C189.707 141.65 181.88 140.06 174.916 137.26L173.423 140.97L171.929 144.68C179.849 147.87 188.691 149.65 198 149.65V145.65ZM173.423 140.97L171.426 137.51C157.849 145.33 139.214 150.25 118.5 150.25V154.25V158.25C140.394 158.25 160.45 153.07 175.42 144.44L173.423 140.97ZM118.5 154.25V150.25C107.009 150.25 96.136 148.74 86.402 146.04L85.334 149.89L84.266 153.75C94.722 156.65 106.315 158.25 118.5 158.25V154.25ZM85.334 149.89L84.807 145.93C84.691 145.94 84.59 145.95 84.5 145.95V149.95V153.95C84.972 153.95 85.427 153.92 85.861 153.86L85.334 149.89ZM84.5 149.95V145.95C78.374 145.95 72.634 149.49 67.877 152.64C62.69 156.08 58.273 159.33 53.693 160.92L55 164.7L56.307 168.48C62.125 166.47 67.707 162.35 72.296 159.31C77.314 155.99 81.126 153.95 84.5 153.95V149.95ZM55 164.7L53.693 160.92C48.886 162.58 42.958 163.61 38.1 164.23C35.697 164.53 33.61 164.73 32.126 164.85C31.385 164.91 30.797 164.95 30.398 164.97C30.199 164.98 30.047 164.99 29.947 165C29.897 165 29.86 165 29.836 165C29.825 165 29.816 165 29.811 165C29.809 165 29.808 165 29.807 165C29.807 165 29.807 165 30.001 169C30.194 173 30.195 173 30.195 173C30.196 173 30.196 173 30.197 173C30.198 173 30.199 173 30.2 173C30.203 172.99 30.207 172.99 30.212 172.99C30.221 172.99 30.234 172.99 30.25 172.99C30.283 172.99 30.329 172.99 30.388 172.99C30.507 172.98 30.679 172.97 30.899 172.95C31.34 172.93 31.973 172.88 32.764 172.82C34.343 172.69 36.555 172.49 39.103 172.17C44.145 171.53 50.717 170.41 56.307 168.48L55 164.7ZM30.001 169C33.411 171.09 33.411 171.09 33.411 171.09C33.412 171.09 33.413 171.09 33.415 171.09C33.417 171.08 33.42 171.08 33.424 171.07C33.433 171.05 33.446 171.03 33.462 171.01C33.496 170.95 33.545 170.87 33.61 170.77C33.738 170.56 33.927 170.25 34.169 169.85C34.653 169.05 35.348 167.9 36.198 166.49C37.896 163.66 40.214 159.76 42.686 155.5L39.226 153.49L35.765 151.48C33.318 155.71 31.023 159.57 29.339 162.37C28.498 163.77 27.809 164.91 27.332 165.69C27.093 166.09 26.907 166.39 26.782 166.6C26.719 166.7 26.671 166.78 26.639 166.83C26.623 166.86 26.611 166.88 26.603 166.89C26.599 166.9 26.596 166.9 26.594 166.9C26.593 166.91 26.591 166.91 26.591 166.91C26.591 166.91 26.591 166.91 30.001 169ZM39.226 153.49L39.745 149.52C28.971 148.11 19.808 144.75 13.455 140.35C7.05402 135.93 4 130.85 4 125.98H0H-4C-4 134.47 1.31399 141.68 8.90399 146.93C16.541 152.21 26.991 155.92 38.706 157.46L39.226 153.49ZM0 125.98H4C4 123.2 4.97301 120.41 6.97601 117.69L3.75299 115.32L0.530029 112.95C-2.30397 116.81 -4 121.22 -4 125.98H0ZM3.75299 115.32L7.34003 113.55C5.16603 109.15 4 104.44 4 99.5601H0H-4C-4 105.75 -2.51598 111.66 0.166016 117.09L3.75299 115.32ZM0 99.5601H4C4 88.4001 10.124 77.9699 20.68 70.1799C31.235 62.3999 46.007 57.46 62.5 57.46V53.46V49.46C44.475 49.46 27.998 54.85 15.932 63.75C3.86701 72.64 -4 85.2601 -4 99.5601H0ZM62.5 53.46V57.46C72.481 57.46 81.85 59.2799 90.041 62.4399L91.483 58.71L92.926 54.98C83.79 51.45 73.44 49.46 62.5 49.46V53.46ZM91.483 58.71L94.204 61.6499C99.641 56.5999 106.129 53.78 113 53.78V49.78V45.78C103.82 45.78 95.451 49.58 88.763 55.78L91.483 58.71ZM113 49.78V53.78C116.55 53.78 119.976 54.5299 123.202 55.9299L124.8 52.27L126.397 48.6001C122.212 46.7801 117.702 45.78 113 45.78V49.78ZM124.8 52.27L125.915 56.1101C131.112 54.6001 136.689 53.78 142.5 53.78V49.78V45.78C135.933 45.78 129.606 46.7099 123.684 48.4299L124.8 52.27ZM142.5 49.78V53.78C149.507 53.78 156.172 54.9699 162.243 57.1299L163.581 53.3601L164.919 49.5901C157.99 47.1301 150.419 45.78 142.5 45.78V49.78ZM163.581 53.3601L165.505 56.8701C169.973 54.4101 177.932 49.9901 185.263 45.6101C188.925 43.4301 192.47 41.23 195.36 39.28C198.094 37.44 200.687 35.5299 202.042 33.9399L199 31.3401L195.958 28.74C195.422 29.37 193.756 30.7099 190.886 32.6499C188.172 34.4799 184.769 36.59 181.162 38.75C173.956 43.05 166.097 47.4201 161.657 49.8501L163.581 53.3601ZM199 31.3401L202.042 33.9399C206.928 28.2199 206.827 28.0301 212.295 20.0901L209 17.8201L205.705 15.55C200.174 23.59 200.52 23.4 195.958 28.74L199 31.3401ZM209 17.8201L212.295 20.0901C215.327 15.6901 217.343 10.86 218.596 7.20996C219.227 5.37996 219.677 3.79992 219.972 2.66992C220.119 2.10992 220.228 1.65008 220.302 1.33008C220.338 1.17008 220.366 1.04996 220.386 0.959961C220.396 0.909961 220.403 0.880098 220.409 0.850098C220.412 0.840098 220.414 0.820068 220.416 0.820068C220.417 0.810068 220.418 0.810049 220.418 0.800049C220.419 0.800049 220.42 0.8 216.5 0C212.58 -0.8 212.579 -0.800049 212.58 -0.800049C212.58 -0.800049 212.58 -0.800039 212.579 -0.790039C212.577 -0.780039 212.573 -0.75998 212.567 -0.72998C212.554 -0.67998 212.534 -0.579961 212.505 -0.459961C212.448 -0.209961 212.357 0.169902 212.231 0.649902C211.979 1.6199 211.585 3.00012 211.029 4.62012C209.907 7.88012 208.173 11.97 205.705 15.55L209 17.8201ZM216.5 0L212.52 0.399902L217.177 47.1799L221.157 46.79L225.138 46.3899L220.48 -0.399902L216.5 0ZM168.406 55.3101L166.744 58.95C167.213 59.17 167.671 59.3801 168.118 59.6001L169.88 56.01L171.642 52.4199C171.116 52.1599 170.59 51.9099 170.068 51.6699L168.406 55.3101ZM169.88 56.01L171.605 59.6201C172.064 59.4001 172.535 59.18 173.02 58.97L171.395 55.3101L169.769 51.6599C169.236 51.8899 168.696 52.1399 168.155 52.3999L169.88 56.01ZM171.395 55.3101V51.3101H168.406V55.3101V59.3101H171.395V55.3101Z" fill="black"/>
</g>
<path d="M86.988 83.29C90.016 82.37 92.496 81.9099 94.43 81.9099C97.066 81.9099 98.365 82.8299 98.326 84.6599C98.268 88.3599 95.162 92.1701 89.01 96.1201C88.58 98.5001 88.268 100.71 88.072 102.74L83.414 104.03C83.473 103.6 83.707 102.29 84.117 100.1L85.406 93.1599C86.559 86.7699 87.086 83.48 86.988 83.29ZM90.68 87.97C90.543 88.52 90.416 89.0701 90.299 89.6201L89.977 91.23C91.793 90.33 92.965 89.3799 93.492 88.3799C93.57 88.2299 93.609 88.1 93.609 88C93.609 87.67 93.365 87.51 92.877 87.51C92.408 87.51 91.676 87.66 90.68 87.97ZM92.027 104.38C94.898 97.0599 97.223 90 99 83.2L107.906 81.71C106.891 87.62 106.432 94.62 106.529 102.71L100.318 104.15L100.758 100.48L98.795 100.87L98.18 103.44L92.027 104.38ZM101.227 96.5601L102.574 85.48H102.545L99.791 96.8201L101.227 96.5601ZM107.994 86.74C108.502 85.77 108.932 84.9999 109.283 84.4299C110.279 82.9499 111.607 82.1501 113.268 82.0601C113.443 82.0601 113.619 82.0701 113.795 82.0901C115.318 82.1601 116.803 83.6999 118.248 86.6899C118.561 87.3499 118.717 87.9999 118.717 88.6499C118.717 89.9599 118.033 91.25 116.666 92.52C118.424 93.49 119.303 94.7601 119.303 96.3201C119.303 97.0901 119.098 97.91 118.688 98.79C117.691 100.99 116.383 102.58 114.762 103.56C113.609 104.24 112.086 104.59 110.191 104.59C108.453 104.59 107.154 104.11 106.295 103.15C106.568 100.9 106.842 98.6599 107.115 96.4099C108.619 98.2699 110.094 99.2 111.539 99.2C112.145 99.2 112.662 99.15 113.092 99.05C113.58 98.93 113.961 98.7099 114.234 98.3799C114.664 97.8499 114.879 97.3599 114.879 96.9099C114.879 95.2099 113.697 94.4 111.334 94.48C111.236 94.48 111.139 94.48 111.041 94.48L111.51 90.8501C111.842 90.9201 112.145 90.96 112.418 90.96C113.785 90.96 114.479 90.07 114.498 88.3C114.498 87.5 114.02 87.0901 113.062 87.0701C113.043 87.0701 113.033 87.0701 113.033 87.0701C112.545 87.0701 112.135 87.5299 111.803 88.4399L109.898 87.5901C109.02 87.2001 108.385 86.92 107.994 86.74ZM122.906 83.3201L128.326 82.3799C127.35 86.1099 126.559 89.5101 125.953 92.5701L128.385 92.0801L129.879 83.3201L135.299 82.3799C133.229 90.3699 131.92 97.15 131.373 102.74L126.334 104.03L127.682 96.0601C127.135 96.1801 126.305 96.3501 125.191 96.5901C124.82 98.9901 124.557 101.04 124.4 102.74L119.361 104.03L122.906 83.3201ZM135.855 83.3201L141.275 82.3799C140.572 84.4299 139.928 86.9201 139.342 89.8501C140.279 87.7801 141.441 85.6001 142.828 83.3201L148.248 82.3799C146.178 90.3699 144.869 97.15 144.322 102.74L139.283 104.03L140.982 94.0701C139.811 96.2901 138.6 99.19 137.35 102.74L132.311 104.03L135.855 83.3201ZM148.805 83.3201L154.225 82.3799C152.896 87.7499 151.754 93.1601 150.797 98.6101L153.199 98.26L155.777 83.3201L161.197 82.3799C159.635 88.4499 158.502 93.82 157.799 98.49C158.971 98.47 160.035 98.4101 160.992 98.3201C160.152 100.6 159.518 102.96 159.088 105.41L153.434 106.29L154.078 102.89C150.934 103.08 147.994 103.46 145.26 104.03L148.805 83.3201ZM157.066 104.38C159.938 97.0599 162.262 90 164.039 83.2L172.945 81.71C171.93 87.62 171.471 94.62 171.568 102.71L165.357 104.15L165.797 100.48L163.834 100.87L163.219 103.44L157.066 104.38ZM166.266 96.5601L167.613 85.48H167.584L164.83 96.8201L166.266 96.5601ZM184.518 87.6799C184.361 88.2499 184.225 88.8001 184.107 89.3501L183.785 90.96L188.473 89.97L188.209 94.01C185.982 94.4 184.234 94.74 182.965 95.04C182.887 95.43 182.818 95.82 182.76 96.21L182.555 97.3501L188.004 96.5601L187.623 102.01C184.811 102.24 181.246 102.92 176.93 104.03L180.416 83.02L190.172 81.6201L189.791 87.04C187.877 87.21 186.119 87.4299 184.518 87.6799ZM198.639 81.8799C200.67 81.8799 202.164 82.9799 203.121 85.1899L199.811 88.8201C199.361 88.3601 198.844 88.1201 198.258 88.1201C197.223 88.1201 196.148 89.01 195.035 90.79C194.117 92.25 193.521 93.6199 193.248 94.8899C193.111 95.4899 193.043 96.04 193.043 96.53C193.043 97.84 193.521 98.74 194.479 99.22C194.791 99.38 195.123 99.46 195.475 99.46C196.49 99.46 197.555 98.71 198.668 97.2L199.605 100.69C197.672 102.84 195.709 103.91 193.717 103.91C191.686 103.91 190.201 102.84 189.264 100.69C188.697 99.4399 188.414 98.04 188.414 96.5C188.414 95.37 188.561 94.1699 188.854 92.8999C189.439 90.2999 190.553 87.93 192.193 85.78C194.166 83.18 196.314 81.8799 198.639 81.8799ZM214.137 82.0901L213.961 87.54C212.594 87.61 211.295 87.7101 210.064 87.8301C208.775 93.2401 207.906 98.21 207.457 102.74L202.506 104.03L205.201 88.4399C204.674 88.5199 204.146 88.61 203.619 88.71L202.066 89L201.715 83.52L214.137 82.0901ZM210.416 102.65C210.689 102.38 211.354 99.09 212.408 92.78C212.408 92.78 212.77 90.6599 213.492 86.4199C213.824 84.4499 214.068 83.14 214.225 82.5C214.225 82.5 215.758 82.2801 218.824 81.8501C218.258 83.9201 217.682 86.5801 217.096 89.8201C221.822 93.7701 223.541 97.58 222.252 101.28C221.627 103.11 219.996 104.03 217.359 104.03C215.426 104.03 213.111 103.57 210.416 102.65ZM215.807 97.96C216.686 98.28 217.359 98.4299 217.828 98.4299C218.316 98.4299 218.619 98.2699 218.736 97.9399C218.775 97.8399 218.785 97.71 218.766 97.55C218.609 96.56 217.779 95.61 216.275 94.71C216.275 94.71 216.188 95.2501 216.012 96.3201C215.934 96.8701 215.865 97.42 215.807 97.96ZM226.91 99.2C227.496 99.2 228.004 99.3499 228.434 99.6599C228.883 99.9799 229.107 100.42 229.107 100.98C229.107 101.88 228.639 102.7 227.701 103.44C226.783 104.17 225.777 104.53 224.684 104.53C224.098 104.53 223.6 104.39 223.189 104.12C222.721 103.79 222.486 103.35 222.486 102.8C222.486 101.9 222.945 101.08 223.863 100.34C224.801 99.5801 225.816 99.2 226.91 99.2ZM235.523 99.2C236.109 99.2 236.617 99.3499 237.047 99.6599C237.496 99.9799 237.721 100.42 237.721 100.98C237.721 101.88 237.252 102.7 236.314 103.44C235.396 104.17 234.391 104.53 233.297 104.53C232.711 104.53 232.213 104.39 231.803 104.12C231.334 103.79 231.1 103.35 231.1 102.8C231.1 101.9 231.559 101.08 232.477 100.34C233.414 99.5801 234.43 99.2 235.523 99.2ZM244.137 99.2C244.723 99.2 245.23 99.3499 245.66 99.6599C246.109 99.9799 246.334 100.42 246.334 100.98C246.334 101.88 245.865 102.7 244.928 103.44C244.01 104.17 243.004 104.53 241.91 104.53C241.324 104.53 240.826 104.39 240.416 104.12C239.947 103.79 239.713 103.35 239.713 102.8C239.713 101.9 240.172 101.08 241.09 100.34C242.027 99.5801 243.043 99.2 244.137 99.2Z" fill="black"/>
</svg>
