<svg width="388" height="217" viewBox="0 0 388 217" fill="none" xmlns="http://www.w3.org/2000/svg">
<path fill-rule="evenodd" clip-rule="evenodd" d="M202.301 41.77L212.301 19.6L230.651 50C231.301 49.91 231.951 49.82 232.601 49.73L258.931 30.78L259.291 49.03C263.021 49.32 266.691 49.77 270.281 50.37L315.061 23.65L300.511 57.1801L349.081 37.97L333.341 64.26L357.031 68.1801L342.311 71.99L371.091 81.47L353.131 84.29L365.771 92.54L335.061 89.3199C337.381 93.0599 339.271 96.98 340.691 101.04L342.691 93.97L381.791 127.1L341.581 144.97L367.141 177.02L337.591 171.44L345.191 189.91L303.911 176.15C301.791 177.28 299.611 178.34 297.371 179.34L300.691 198.12L268.761 187.79C262.601 188.79 256.211 189.35 249.661 189.42L249.531 189.91L253.191 202.77L218.461 186.36C209.071 197.25 190.341 204.77 168.711 204.95C149.121 205.11 131.811 199.21 121.611 190.12L91.1007 210.61L91.1307 188.53C90.6307 188.42 90.1407 188.3 89.6507 188.18L42.6807 213.53L59.3107 194.12H42.6807L48.5907 178.26C48.0107 178.35 47.4206 178.45 46.8306 178.53C23.6206 181.65 2.77069 169.01 0.250689 150.3C-1.45931 137.62 5.71067 125.4 17.7307 117.87C10.0207 108.2 11.3506 92.39 21.4606 80.64C30.3806 70.27 43.4307 66.19 53.7407 69.61C56.7607 66.69 60.4507 64.7599 64.5907 64.2C68.4607 63.68 72.2807 64.4301 75.7707 66.1801C81.2807 54.3301 94.3907 44.96 110.671 42.77C126.501 40.64 141.231 45.8501 149.801 55.3101C158.951 47.8101 169.901 44.24 179.841 45.25L179.611 0L202.301 41.77Z" fill="#FFD54F"/>
<mask id="mask0_11_2" style="mask-type:luminance" maskUnits="userSpaceOnUse" x="0" y="0" width="382" height="214">
<path fill-rule="evenodd" clip-rule="evenodd" d="M202.301 41.77L212.301 19.6L230.651 50C231.301 49.91 231.951 49.82 232.601 49.73L258.931 30.78L259.291 49.03C263.021 49.32 266.691 49.77 270.281 50.37L315.061 23.65L300.511 57.1801L349.081 37.97L333.341 64.26L357.031 68.1801L342.311 71.99L371.091 81.47L353.131 84.29L365.771 92.54L335.061 89.3199C337.381 93.0599 339.271 96.98 340.691 101.04L342.691 93.97L381.791 127.1L341.581 144.97L367.141 177.02L337.591 171.44L345.191 189.91L303.911 176.15C301.791 177.28 299.611 178.34 297.371 179.34L300.691 198.12L268.761 187.79C262.601 188.79 256.211 189.35 249.661 189.42L249.531 189.91L253.191 202.77L218.461 186.36C209.071 197.25 190.341 204.77 168.711 204.95C149.121 205.11 131.811 199.21 121.611 190.12L91.1007 210.61L91.1307 188.53C90.6307 188.42 90.1407 188.3 89.6507 188.18L42.6807 213.53L59.3107 194.12H42.6807L48.5907 178.26C48.0107 178.35 47.4206 178.45 46.8306 178.53C23.6206 181.65 2.77069 169.01 0.250689 150.3C-1.45931 137.62 5.71067 125.4 17.7307 117.87C10.0207 108.2 11.3506 92.39 21.4606 80.64C30.3806 70.27 43.4307 66.19 53.7407 69.61C56.7607 66.69 60.4507 64.7599 64.5907 64.2C68.4607 63.68 72.2807 64.4301 75.7707 66.1801C81.2807 54.3301 94.3907 44.96 110.671 42.77C126.501 40.64 141.231 45.8501 149.801 55.3101C158.951 47.8101 169.901 44.24 179.841 45.25L179.611 0L202.301 41.77Z" fill="white"/>
</mask>
<g mask="url(#mask0_11_2)">
<path d="M202.301 41.7699L199.671 43.1998L202.551 48.5099L205.041 42.9999L202.301 41.7699ZM212.301 19.5999L214.871 18.0499L211.921 13.1599L209.571 18.3699L212.301 19.5999ZM230.651 49.9999L228.081 51.5599L229.111 53.2599L231.091 52.9698L230.651 49.9999ZM232.601 49.7299L232.991 52.7098L233.741 52.6099L234.351 52.1699L232.601 49.7299ZM258.931 30.7799L261.931 30.7198L261.811 24.9999L257.171 28.3398L258.931 30.7799ZM259.291 49.0299L256.291 49.0898L256.341 51.8099L259.061 52.0199L259.291 49.0299ZM270.281 50.3699L269.781 53.3298L270.871 53.5099L271.811 52.9498L270.281 50.3699ZM315.061 23.6499L317.821 24.8398L321.531 16.2999L313.531 21.0698L315.061 23.6499ZM300.511 57.1799L297.751 55.9799L294.871 62.6299L301.611 59.9698L300.511 57.1799ZM349.081 37.9698L351.651 39.5099L356.191 31.9299L347.981 35.1799L349.081 37.9698ZM333.341 64.2599L330.761 62.7098L328.501 66.4999L332.851 67.2198L333.341 64.2599ZM357.031 68.1799L357.791 71.0798L357.521 65.2198L357.031 68.1799ZM342.311 71.9899L341.561 69.0898L331.671 71.6499L341.371 74.8398L342.311 71.9899ZM371.091 81.4698L371.561 84.4299L372.031 78.6199L371.091 81.4698ZM353.131 84.2899L352.671 81.3298L344.971 82.5399L351.491 86.7999L353.131 84.2899ZM365.771 92.5399L365.451 95.5299L367.411 90.0299L365.771 92.5399ZM335.061 89.3198L335.371 86.3398L329.281 85.6998L332.511 90.9099L335.061 89.3198ZM340.691 101.04L337.861 102.03L340.991 111.01L343.581 101.86L340.691 101.04ZM342.691 93.9698L344.631 91.6799L341.071 88.6699L339.801 93.1599L342.691 93.9698ZM381.791 127.1L383.011 129.85L387.381 127.9L383.731 124.81L381.791 127.1ZM341.581 144.97L340.361 142.23L336.811 143.81L339.231 146.84L341.581 144.97ZM367.141 177.02L366.581 179.97L374.521 181.47L369.481 175.15L367.141 177.02ZM337.591 171.44L338.151 168.49L332.721 167.46L334.821 172.58L337.591 171.44ZM345.191 189.91L344.241 192.75L350.451 194.83L347.961 188.77L345.191 189.91ZM303.911 176.15L304.861 173.3L303.631 172.9L302.491 173.5L303.911 176.15ZM297.371 179.34L296.151 176.6L294.011 177.56L294.421 179.86L297.371 179.34ZM300.691 198.12L299.771 200.98L304.511 202.51L303.641 197.6L300.691 198.12ZM268.761 187.79L269.681 184.94L268.991 184.72L268.281 184.83L268.761 187.79ZM249.661 189.42L249.631 186.42L247.371 186.44L246.771 188.62L249.661 189.42ZM249.531 189.91L246.631 189.11L246.411 189.92L246.641 190.73L249.531 189.91ZM253.191 202.77L251.911 205.49L257.891 208.31L256.081 201.95L253.191 202.77ZM218.461 186.36L219.741 183.65L217.681 182.67L216.191 184.4L218.461 186.36ZM121.611 190.12L123.611 187.88L121.871 186.33L119.941 187.63L121.611 190.12ZM91.1008 210.61H88.1008V216.25L92.7808 213.1L91.1008 210.61ZM91.1308 188.53H94.1308V186.12L91.7808 185.6L91.1308 188.53ZM89.6508 188.18L90.3708 185.27L89.2508 184.99L88.2308 185.54L89.6508 188.18ZM42.6808 213.53L40.4008 211.58L44.1108 216.17L42.6808 213.53ZM59.3108 194.12L61.5908 196.07L65.8307 191.12H59.3108V194.12ZM42.6808 194.12L39.8708 193.07L38.3608 197.12H42.6808V194.12ZM48.5908 178.26L51.4008 179.3L53.2107 174.44L48.0908 175.3L48.5908 178.26ZM17.7308 117.87L19.3307 120.41L22.1808 118.63L20.0807 116L17.7308 117.87ZM53.7408 69.6099L52.8008 72.4598L54.5208 73.0299L55.8307 71.7699L53.7408 69.6099ZM75.7708 66.1799L74.4208 68.8599L77.1808 70.2399L78.4908 67.4398L75.7708 66.1799ZM149.801 55.3099L147.581 57.3298L149.491 59.4398L151.701 57.6299L149.801 55.3099ZM179.841 45.2499L179.541 48.2299L182.861 48.5698L182.841 45.2299L179.841 45.2499ZM179.611 -0.00012207L182.251 -1.43018L176.611 0.0198975L179.611 -0.00012207ZM202.301 41.7699L205.041 42.9999L215.041 20.8398L212.301 19.5999L209.571 18.3699L199.571 40.5399L202.301 41.7699ZM212.301 19.5999L209.731 21.1499L228.081 51.5599L230.651 49.9999L233.221 48.4498L214.871 18.0499L212.301 19.5999ZM230.651 49.9999L231.091 52.9698C231.721 52.8798 232.361 52.7898 232.991 52.7098L232.601 49.7299L232.211 46.7599C231.531 46.8499 230.871 46.9399 230.211 47.0399L230.651 49.9999ZM232.601 49.7299L234.351 52.1699L260.681 33.2098L258.931 30.7799L257.171 28.3398L230.841 47.2999L232.601 49.7299ZM258.931 30.7799L255.931 30.8398L256.291 49.0898L259.291 49.0299L262.291 48.9698L261.931 30.7198L258.931 30.7799ZM259.291 49.0299L259.061 52.0199C262.701 52.2999 266.281 52.7398 269.781 53.3298L270.281 50.3699L270.771 47.4099C267.101 46.7899 263.341 46.3299 259.521 46.0399L259.291 49.0299ZM270.281 50.3699L271.811 52.9498L316.601 26.2198L315.061 23.6499L313.531 21.0698L268.741 47.7899L270.281 50.3699ZM315.061 23.6499L312.311 22.4498L297.751 55.9799L300.511 57.1799L303.261 58.3699L317.821 24.8398L315.061 23.6499ZM300.511 57.1799L301.611 59.9698L350.181 40.7599L349.081 37.9698L347.981 35.1799L299.401 54.3899L300.511 57.1799ZM349.081 37.9698L346.511 36.4299L330.761 62.7098L333.341 64.2599L335.911 65.7999L351.651 39.5099L349.081 37.9698ZM333.341 64.2599L332.851 67.2198L356.541 71.1399L357.031 68.1799L357.521 65.2198L333.831 61.2999L333.341 64.2599ZM357.031 68.1799L356.281 65.2699L341.561 69.0898L342.311 71.9899L343.061 74.8999L357.791 71.0798L357.031 68.1799ZM342.311 71.9899L341.371 74.8398L370.151 84.3198L371.091 81.4698L372.031 78.6199L343.251 69.1399L342.311 71.9899ZM371.091 81.4698L370.631 78.4999L352.671 81.3298L353.131 84.2899L353.601 87.2599L371.561 84.4299L371.091 81.4698ZM353.131 84.2899L351.491 86.7999L364.131 95.0499L365.771 92.5399L367.411 90.0299L354.781 81.7799L353.131 84.2899ZM365.771 92.5399L366.081 89.5599L335.371 86.3398L335.061 89.3198L334.751 92.3099L365.451 95.5299L365.771 92.5399ZM335.061 89.3198L332.511 90.9099C334.721 94.4699 336.521 98.1899 337.861 102.03L340.691 101.04L343.521 100.06C342.031 95.7699 340.041 91.6599 337.611 87.7399L335.061 89.3198ZM340.691 101.04L343.581 101.86L345.581 94.7899L342.691 93.9698L339.801 93.1599L337.801 100.23L340.691 101.04ZM342.691 93.9698L340.751 96.2599L379.851 129.39L381.791 127.1L383.731 124.81L344.631 91.6799L342.691 93.9698ZM381.791 127.1L380.571 124.36L340.361 142.23L341.581 144.97L342.801 147.72L383.011 129.85L381.791 127.1ZM341.581 144.97L339.231 146.84L364.791 178.89L367.141 177.02L369.481 175.15L343.921 143.1L341.581 144.97ZM367.141 177.02L367.701 174.07L338.151 168.49L337.591 171.44L337.041 174.38L366.581 179.97L367.141 177.02ZM337.591 171.44L334.821 172.58L342.411 191.05L345.191 189.91L347.961 188.77L340.371 170.3L337.591 171.44ZM345.191 189.91L346.141 187.06L304.861 173.3L303.911 176.15L302.961 179L344.241 192.75L345.191 189.91ZM303.911 176.15L302.491 173.5C300.441 174.6 298.331 175.63 296.151 176.6L297.371 179.34L298.601 182.08C300.901 181.05 303.141 179.96 305.321 178.8L303.911 176.15ZM297.371 179.34L294.421 179.86L297.741 198.64L300.691 198.12L303.641 197.6L300.331 178.82L297.371 179.34ZM300.691 198.12L301.611 195.27L269.681 184.94L268.761 187.79L267.841 190.65L299.771 200.98L300.691 198.12ZM268.761 187.79L268.281 184.83C262.261 185.81 256.031 186.35 249.631 186.42L249.661 189.42L249.691 192.42C256.391 192.35 262.931 191.78 269.241 190.75L268.761 187.79ZM249.661 189.42L246.771 188.62L246.631 189.11L249.531 189.91L252.421 190.71L252.551 190.22L249.661 189.42ZM249.531 189.91L246.641 190.73L250.311 203.6L253.191 202.77L256.081 201.95L252.411 189.09L249.531 189.91ZM253.191 202.77L254.471 200.06L219.741 183.65L218.461 186.36L217.181 189.07L251.911 205.49L253.191 202.77ZM218.461 186.36L216.191 184.4C207.541 194.42 189.781 201.77 168.691 201.95L168.711 204.95L168.741 207.95C190.901 207.76 210.591 200.07 220.731 188.32L218.461 186.36ZM168.711 204.95L168.691 201.95C149.621 202.1 133.111 196.34 123.611 187.88L121.611 190.12L119.621 192.36C130.521 202.07 148.621 208.11 168.741 207.95L168.711 204.95ZM121.611 190.12L119.941 187.63L89.4308 208.12L91.1008 210.61L92.7808 213.1L123.291 192.61L121.611 190.12ZM91.1008 210.61L94.1008 210.62L94.1308 188.53H91.1308L88.1308 188.52L88.1008 210.61H91.1008ZM91.1308 188.53L91.7808 185.6C91.3108 185.49 90.8408 185.38 90.3708 185.27L89.6508 188.18L88.9308 191.09C89.4408 191.22 89.9608 191.34 90.4808 191.45L91.1308 188.53ZM89.6508 188.18L88.2308 185.54L41.2608 210.89L42.6808 213.53L44.1108 216.17L91.0807 190.82L89.6508 188.18ZM42.6808 213.53L44.9607 215.48L61.5908 196.07L59.3108 194.12L57.0308 192.17L40.4008 211.58L42.6808 213.53ZM59.3108 194.12V191.12H42.6808V194.12V197.12H59.3108V194.12ZM42.6808 194.12L45.4908 195.17L51.4008 179.3L48.5908 178.26L45.7808 177.21L39.8708 193.07L42.6808 194.12ZM48.5908 178.26L48.0908 175.3C47.5308 175.39 46.9808 175.48 46.4308 175.55L46.8307 178.53L47.2308 181.5C47.8608 181.41 48.4808 181.32 49.0908 181.22L48.5908 178.26ZM46.8307 178.53L46.4308 175.55C24.2308 178.54 5.44076 166.4 3.22076 149.9L0.250786 150.3L-2.71918 150.7C0.0908153 171.62 23.0108 184.76 47.2308 181.5L46.8307 178.53ZM0.250786 150.3L3.22076 149.9C1.71076 138.68 8.02074 127.49 19.3307 120.41L17.7308 117.87L16.1408 115.33C3.4008 123.3 -4.62918 136.56 -2.71918 150.7L0.250786 150.3ZM17.7308 117.87L20.0807 116C13.5007 107.75 14.2908 93.5699 23.7308 82.5999L21.4607 80.6399L19.1907 78.6799C8.40073 91.2199 6.5408 108.65 15.3908 119.74L17.7308 117.87ZM21.4607 80.6399L23.7308 82.5999C32.0308 72.9599 43.8708 69.4998 52.8008 72.4598L53.7408 69.6099L54.6907 66.7699C43.0007 62.8899 28.7307 67.5899 19.1907 78.6799L21.4607 80.6399ZM53.7408 69.6099L55.8307 71.7699C58.4407 69.2499 61.5508 67.6399 64.9908 67.1799L64.5908 64.1998L64.1907 61.2299C59.3507 61.8799 55.0808 64.1398 51.6608 67.4598L53.7408 69.6099ZM64.5908 64.1998L64.9908 67.1799C68.2108 66.7399 71.4208 67.3499 74.4208 68.8599L75.7708 66.1799L77.1108 63.4999C73.1308 61.4999 68.7207 60.6199 64.1907 61.2299L64.5908 64.1998ZM75.7708 66.1799L78.4908 67.4398C83.5008 56.6598 95.6407 47.8199 111.071 45.7499L110.671 42.7699L110.271 39.7999C93.1408 42.1099 79.0508 51.9899 73.0508 64.9099L75.7708 66.1799ZM110.671 42.7699L111.071 45.7499C126.071 43.7299 139.771 48.6998 147.581 57.3298L149.801 55.3099L152.031 53.2999C142.701 42.9999 126.931 37.5599 110.271 39.7999L110.671 42.7699ZM149.801 55.3099L151.701 57.6299C160.331 50.5599 170.511 47.3199 179.541 48.2299L179.841 45.2499L180.151 42.2599C169.291 41.1599 157.571 45.0699 147.901 52.9899L149.801 55.3099ZM179.841 45.2499L182.841 45.2299L182.611 -0.0201416L179.611 -0.00012207L176.611 0.0198975L176.841 45.2599L179.841 45.2499ZM179.611 -0.00012207L176.981 1.42993L199.671 43.1998L202.301 41.7699L204.941 40.3398L182.251 -1.43018L179.611 -0.00012207Z" fill="black"/>
</g>
<path d="M130.82 98.3198L135.86 97.3799C135.39 99.0999 135.06 100.46 134.87 101.45C136.57 99.9698 138.12 98.5399 139.52 97.1699L143.22 99.5798L137.44 104.7L140.67 116.63L135.39 119.44L133.34 108.39C132.74 111.54 132.25 114.65 131.88 117.74L127.25 119.03L130.82 98.3198ZM154.55 97.0898L154.38 102.54C153.01 102.61 151.71 102.71 150.48 102.83C149.19 108.24 148.32 113.21 147.87 117.74L142.92 119.03L145.62 103.44C145.09 103.52 144.56 103.61 144.04 103.71L142.48 104L142.13 98.5199L154.55 97.0898ZM162.46 96.0898C164.53 96.0898 166 97.2399 166.86 99.5499C167.31 100.74 167.53 102.05 167.53 103.47C167.53 104.84 167.33 106.32 166.92 107.93C166.19 110.66 164.94 113.18 163.17 115.48C161 118.3 158.7 119.7 156.28 119.7C154.19 119.7 152.71 118.55 151.83 116.25C151.4 115.11 151.18 113.84 151.18 112.44C151.18 111.05 151.4 109.55 151.83 107.93C152.55 105.17 153.79 102.64 155.55 100.34C157.72 97.5098 160.02 96.0898 162.46 96.0898ZM161.41 103.36C160.33 103.36 159.24 104.23 158.13 105.99C157.23 107.38 156.6 108.74 156.25 110.06C156.08 110.77 155.99 111.4 155.99 111.97C155.99 112.77 156.18 113.42 156.58 113.93C157.02 114.5 157.65 114.78 158.45 114.78C159.54 114.78 160.53 114.21 161.41 113.05C162.11 112.13 162.62 111.05 162.93 109.8C163.3 108.34 163.38 106.89 163.17 105.46C162.93 104.06 162.35 103.36 161.41 103.36ZM171.14 117.65C172.52 112.01 173.71 105.46 174.71 98.0199C174.71 98.0199 178.05 97.5499 184.73 96.6199L184.38 102.04C182.42 102.21 180.61 102.43 178.93 102.68C178.71 103.52 178.51 104.38 178.31 105.26C182.67 109.05 184.22 112.72 182.97 116.28C182.35 118.11 180.72 119.03 178.08 119.03C176.15 119.03 173.83 118.57 171.14 117.65ZM177.38 109.95C177.2 110.98 177.03 112.03 176.88 113.08C177.58 113.32 178.14 113.43 178.55 113.43C179.04 113.43 179.34 113.27 179.46 112.94C179.5 112.84 179.5 112.71 179.49 112.55C179.33 111.66 178.63 110.79 177.38 109.95ZM193.43 97.8799L198.15 98.6998C193.93 106.1 190.59 112.8 188.13 118.79L183.62 118.5L186.72 111.97L184.26 100.19L189.97 97.5499C189.92 98.4499 189.88 99.5799 189.86 100.92C189.84 102.27 189.91 103.62 190.06 104.97L193.43 97.8799ZM209.72 113.32C208.88 115.6 208.25 117.96 207.82 120.41L202.16 121.29L203.01 118.15C201.55 118.25 200.26 118.35 199.14 118.44C198.87 119.34 198.59 120.25 198.29 121.17L192.64 122.05L194.78 115.84L195.13 114.61L196.59 114.46C198.25 109.5 199.78 104.27 201.17 98.7899L208.96 97.3799C208.43 100.45 208.13 103.82 208.05 107.52C208.01 109.49 207.97 111.45 207.93 113.4L208.61 113.35V113.4L209.72 113.32ZM201.22 114.05L202.72 113.9L204.53 100.34H204.5L201.22 114.05ZM215.23 102.68C215.07 103.25 214.93 103.8 214.82 104.35L214.5 105.96L219.18 104.97L218.92 109.01C216.69 109.4 214.94 109.74 213.67 110.04C213.6 110.43 213.53 110.82 213.47 111.21L213.26 112.35L218.71 111.56L218.33 117.01C215.52 117.24 211.96 117.92 207.64 119.03L211.13 98.0199L220.88 96.6199L220.5 102.04C218.59 102.21 216.83 102.43 215.23 102.68ZM233.01 97.0898L232.83 102.54C231.47 102.61 230.17 102.71 228.94 102.83C227.65 108.24 226.78 113.21 226.33 117.74L221.38 119.03L224.08 103.44C223.55 103.52 223.02 103.61 222.49 103.71L220.94 104L220.59 98.5199L233.01 97.0898ZM121.99 133.32C126.7 132.87 130.83 132.55 134.38 132.38C132.31 140.37 131 147.15 130.46 152.74L125.42 154.03C126.28 148.37 127.32 142.72 128.55 137.1C128.01 137.21 127.18 137.39 126.06 137.62C125.16 142.19 124.3 147.23 123.48 152.74L118.45 154.03L121.99 133.32ZM130.11 154.26C132.43 147.9 134.51 141.07 136.35 133.79L144.14 132.38C143.65 135.15 143.35 138.53 143.23 142.52C143.17 145.91 143.11 149.31 143.05 152.71L137.2 154.03L139.71 135.34H139.69L135.41 153.3L130.11 154.26ZM140.71 154.38C143.58 147.06 145.91 140 147.68 133.2L156.59 131.71C155.57 137.62 155.12 144.62 155.21 152.71L149 154.15L149.44 150.48L147.48 150.87L146.86 153.44L140.71 154.38ZM149.91 146.56L151.26 135.48H151.23L148.47 146.82L149.91 146.56ZM169.33 132.09L169.16 137.54C167.79 137.61 166.49 137.71 165.26 137.83C163.97 143.24 163.1 148.21 162.65 152.74L157.7 154.03L160.4 138.44C159.87 138.52 159.34 138.61 158.82 138.71L157.26 139L156.91 133.52L169.33 132.09ZM169.25 133.32L174.67 132.38C173.96 134.43 173.32 136.92 172.73 139.85C173.67 137.78 174.83 135.6 176.22 133.32L181.64 132.38C179.57 140.37 178.26 147.15 177.71 152.74L172.67 154.03L174.37 144.07C173.2 146.29 171.99 149.19 170.74 152.74L165.7 154.03L169.25 133.32ZM192.98 132.09L192.8 137.54C191.43 137.61 190.13 137.71 188.9 137.83C187.62 143.24 186.75 148.21 186.3 152.74L181.35 154.03L184.04 138.44C183.51 138.52 182.99 138.61 182.46 138.71L180.91 139L180.55 133.52L192.98 132.09ZM189.26 152.65C189.53 152.38 190.19 149.09 191.25 142.78C191.25 142.78 191.61 140.66 192.33 136.42C192.66 134.45 192.91 133.14 193.06 132.5C193.06 132.5 194.6 132.28 197.66 131.85C197.1 133.92 196.52 136.58 195.94 139.82C200.66 143.77 202.38 147.58 201.09 151.28C200.47 153.11 198.84 154.03 196.2 154.03C194.27 154.03 191.95 153.57 189.26 152.65ZM194.65 147.96C195.53 148.28 196.2 148.43 196.67 148.43C197.16 148.43 197.46 148.27 197.58 147.94C197.62 147.84 197.62 147.71 197.61 147.55C197.45 146.56 196.62 145.61 195.12 144.71C195.12 144.71 195.03 145.25 194.85 146.32C194.77 146.87 194.71 147.42 194.65 147.96ZM206.42 149.22C207.11 149.13 207.73 149.23 208.3 149.55C208.88 149.84 209.18 150.32 209.18 150.98C209.18 151.88 208.71 152.7 207.77 153.44C207.01 154.03 206.19 154.38 205.31 154.5C204.63 154.6 204.02 154.52 203.49 154.26C202.87 153.95 202.56 153.46 202.56 152.8C202.56 151.9 203.03 151.07 203.96 150.31C204.71 149.7 205.53 149.34 206.42 149.22ZM204.29 133.29C207.33 132.37 209.83 131.91 211.79 131.91C214.44 131.91 215.76 132.83 215.74 134.66C215.72 136.99 214.45 139.3 211.93 141.61C210.54 142.88 208.3 144.47 205.19 146.38C205.25 146.01 205.15 145.38 204.9 144.48C204.65 143.56 204.55 142.91 204.61 142.52C205.8 142.07 206.94 141.52 208.04 140.88C209.64 139.92 210.48 139.06 210.55 138.3C210.59 137.77 210.1 137.48 209.06 137.42C208.03 137.36 206.35 137.72 204.02 138.5L204.29 133.29ZM219.14 149.22C219.82 149.13 220.45 149.23 221.01 149.55C221.6 149.84 221.89 150.32 221.89 150.98C221.89 151.88 221.42 152.7 220.49 153.44C219.72 154.03 218.9 154.38 218.03 154.5C217.34 154.6 216.74 154.52 216.21 154.26C215.58 153.95 215.27 153.46 215.27 152.8C215.27 151.9 215.74 151.07 216.68 150.31C217.42 149.7 218.24 149.34 219.14 149.22ZM217 133.29C220.05 132.37 222.55 131.91 224.5 131.91C227.16 131.91 228.47 132.83 228.46 134.66C228.44 136.99 227.17 139.3 224.65 141.61C223.26 142.88 221.01 144.47 217.91 146.38C217.97 146.01 217.87 145.38 217.62 144.48C217.36 143.56 217.26 142.91 217.32 142.52C218.51 142.07 219.66 141.52 220.75 140.88C222.35 139.92 223.19 139.06 223.27 138.3C223.31 137.77 222.81 137.48 221.78 137.42C220.74 137.36 219.06 137.72 216.74 138.5L217 133.29ZM231.85 149.22C232.54 149.13 233.16 149.23 233.73 149.55C234.31 149.84 234.61 150.32 234.61 150.98C234.61 151.88 234.14 152.7 233.2 153.44C232.44 154.03 231.62 154.38 230.74 154.5C230.06 154.6 229.45 154.52 228.92 154.26C228.3 153.95 227.99 153.46 227.99 152.8C227.99 151.9 228.46 151.07 229.39 150.31C230.13 149.7 230.96 149.34 231.85 149.22ZM229.71 133.29C232.76 132.37 235.26 131.91 237.21 131.91C239.87 131.91 241.19 132.83 241.17 134.66C241.15 136.99 239.88 139.3 237.36 141.61C235.97 142.88 233.73 144.47 230.62 146.38C230.68 146.01 230.58 145.38 230.33 144.48C230.08 143.56 229.98 142.91 230.04 142.52C231.23 142.07 232.37 141.52 233.46 140.88C235.07 139.92 235.91 139.06 235.98 138.3C236.02 137.77 235.53 137.48 234.49 137.42C233.46 137.36 231.78 137.72 229.45 138.5L229.71 133.29Z" fill="black"/>
</svg>
