<svg width="156" height="108" viewBox="0 0 156 108" fill="none" xmlns="http://www.w3.org/2000/svg">
<path d="M85.932 0C99.951 0 111.825 9.54 115.879 22.715C119.438 20.579 123.516 19.366 127.85 19.366C141.74 19.366 153 31.83 153 47.205C153 62.58 141.74 75.043 127.85 75.043C124.612 75.043 121.517 74.364 118.674 73.131C112.167 82.952 99.941 89.568 85.932 89.568C79.489 89.568 73.426 88.166 68.121 85.699C63.749 93.565 55.71 100.049 45.848 102.873C42.506 103.83 39.18 104.303 35.966 104.34L32.461 104.379L34.853 101.816C39.823 96.491 43.176 90.156 44.713 83.901C40.68 85.206 36.183 85.937 31.438 85.937C14.076 85.937 0 76.183 0 64.15C0 59.217 2.36701 54.667 6.35501 51.015C5.63001 48.259 5.23901 45.358 5.23901 42.363C5.23901 24.315 19.315 9.68301 36.678 9.68301C38.646 9.68301 40.573 9.87299 42.441 10.232C44.31 9.87299 46.236 9.68301 48.205 9.68301C52.818 9.68301 57.201 10.715 61.147 12.57C66.901 4.91801 75.864 0 85.932 0Z" fill="#FFD54F"/>
<mask id="mask0_4_315" style="mask-type:luminance" maskUnits="userSpaceOnUse" x="0" y="0" width="153" height="105">
<path d="M85.932 0C99.951 0 111.825 9.54 115.879 22.715C119.438 20.579 123.516 19.366 127.85 19.366C141.74 19.366 153 31.83 153 47.205C153 62.58 141.74 75.043 127.85 75.043C124.612 75.043 121.517 74.364 118.674 73.131C112.167 82.952 99.941 89.568 85.932 89.568C79.489 89.568 73.426 88.166 68.121 85.699C63.749 93.565 55.71 100.049 45.848 102.873C42.506 103.83 39.18 104.303 35.966 104.34L32.461 104.379L34.853 101.816C39.823 96.491 43.176 90.156 44.713 83.901C40.68 85.206 36.183 85.937 31.438 85.937C14.076 85.937 0 76.183 0 64.15C0 59.217 2.36701 54.667 6.35501 51.015C5.63001 48.259 5.23901 45.358 5.23901 42.363C5.23901 24.315 19.315 9.68301 36.678 9.68301C38.646 9.68301 40.573 9.87299 42.441 10.232C44.31 9.87299 46.236 9.68301 48.205 9.68301C52.818 9.68301 57.201 10.715 61.147 12.57C66.901 4.91801 75.864 0 85.932 0Z" fill="white"/>
</mask>
<g mask="url(#mask0_4_315)">
<path d="M115.879 22.715L113.012 23.597L114.138 27.258L117.423 25.287L115.879 22.715ZM118.674 73.131L119.868 70.379L117.562 69.378L116.173 71.474L118.674 73.131ZM68.121 85.699L69.386 82.979L66.855 81.802L65.499 84.242L68.121 85.699ZM35.966 104.34L35.999 107.34H36L35.966 104.34ZM32.461 104.379L30.268 102.332L25.485 107.457L32.494 107.379L32.461 104.379ZM44.713 83.901L47.626 84.617L48.91 79.391L43.79 81.047L44.713 83.901ZM6.35501 51.015L8.38101 53.227L9.71799 52.003L9.25601 50.25L6.35501 51.015ZM42.441 10.232L41.874 13.178L42.441 13.288L43.009 13.178L42.441 10.232ZM61.147 12.57L59.871 15.285L62.079 16.323L63.545 14.373L61.147 12.57ZM85.932 0V3C98.532 3 109.314 11.581 113.012 23.597L115.879 22.715L118.746 21.833C114.336 7.49901 101.37 -3 85.932 -3V0ZM115.879 22.715L117.423 25.287C120.54 23.417 124.087 22.366 127.85 22.366V19.366V16.366C122.945 16.366 118.337 17.741 114.335 20.143L115.879 22.715ZM127.85 19.366V22.366C139.804 22.366 150 33.193 150 47.205H153H156C156 30.467 143.676 16.366 127.85 16.366V19.366ZM153 47.205H150C150 61.217 139.804 72.043 127.85 72.043V75.043V78.043C143.676 78.043 156 63.943 156 47.205H153ZM127.85 75.043V72.043C125.036 72.043 122.347 71.454 119.868 70.379L118.674 73.131L117.48 75.883C120.687 77.275 124.187 78.043 127.85 78.043V75.043ZM118.674 73.131L116.173 71.474C110.269 80.385 99.023 86.568 85.932 86.568V89.568V92.568C100.859 92.568 114.065 85.519 121.175 74.788L118.674 73.131ZM85.932 89.568V86.568C79.925 86.568 74.293 85.261 69.386 82.979L68.121 85.699L66.856 88.42C72.558 91.071 79.054 92.568 85.932 92.568V89.568ZM68.121 85.699L65.499 84.242C61.53 91.381 54.155 97.374 45.022 99.989L45.848 102.873L46.674 105.757C57.264 102.724 65.967 95.749 70.743 87.157L68.121 85.699ZM45.848 102.873L45.022 99.989C41.935 100.873 38.875 101.307 35.932 101.34L35.966 104.34L36 107.34C39.485 107.3 43.077 106.787 46.674 105.757L45.848 102.873ZM35.966 104.34L35.932 101.34L32.428 101.379L32.461 104.379L32.494 107.379L35.999 107.34L35.966 104.34ZM32.461 104.379L34.654 106.426L37.046 103.863L34.853 101.816L32.659 99.769L30.268 102.332L32.461 104.379ZM34.853 101.816L37.046 103.863C42.357 98.172 45.964 91.382 47.626 84.617L44.713 83.901L41.8 83.186C40.388 88.93 37.288 94.809 32.659 99.769L34.853 101.816ZM44.713 83.901L43.79 81.047C40.063 82.252 35.877 82.937 31.438 82.937V85.937V88.937C36.488 88.937 41.297 88.159 45.636 86.756L44.713 83.901ZM31.438 85.937V82.937C23.291 82.937 16.045 80.643 10.917 77.09C5.77799 73.529 3 68.905 3 64.15H0H-3C-3 71.428 1.26 77.698 7.5 82.021C13.751 86.353 22.224 88.937 31.438 88.937V85.937ZM0 64.15H3C3 60.239 4.86601 56.446 8.38101 53.227L6.35501 51.015L4.32999 48.802C-0.133013 52.888 -3 58.195 -3 64.15H0ZM6.35501 51.015L9.25601 50.25C8.59501 47.741 8.23901 45.097 8.23901 42.363H5.23901H2.23901C2.23901 45.62 2.66401 48.777 3.45401 51.779L6.35501 51.015ZM5.23901 42.363H8.23901C8.23901 25.861 21.08 12.683 36.678 12.683V9.68301V6.68301C17.55 6.68301 2.23901 22.768 2.23901 42.363H5.23901ZM36.678 9.68301V12.683C38.453 12.683 40.19 12.854 41.874 13.178L42.441 10.232L43.009 7.28699C40.956 6.89099 38.84 6.68301 36.678 6.68301V9.68301ZM42.441 10.232L43.009 13.178C44.693 12.854 46.43 12.683 48.205 12.683V9.68301V6.68301C46.043 6.68301 43.926 6.89099 41.874 7.28699L42.441 10.232ZM48.205 9.68301V12.683C52.366 12.683 56.313 13.613 59.871 15.285L61.147 12.57L62.424 9.85501C58.088 7.81701 53.271 6.68301 48.205 6.68301V9.68301ZM61.147 12.57L63.545 14.373C68.774 7.41999 76.874 3 85.932 3V0V-3C74.855 -3 65.029 2.417 58.75 10.767L61.147 12.57Z" fill="black"/>
</g>
</svg>
