<svg width="305" height="143" viewBox="0 0 305 143" fill="none" xmlns="http://www.w3.org/2000/svg">
<path d="M178.141 2.5C159.718 2.5 143.458 7.68009 133.75 15.5901C125.942 12.1701 116.508 10.1799 106.346 10.1799C84.728 10.1799 66.402 19.21 60.032 31.72C50 24.22 45 28.9001 46.5 36.5601C44.02 39.9401 33.432 33.16 33.432 46.52C15.115 52.05 2.5 63.6501 2.5 77.0701C2.5 95.8501 27.182 111.07 57.628 111.07C62.337 111.07 65.637 127.68 70 127C83.792 140.51 127 144.5 154.423 133C180.588 133 204.154 128.35 220.659 120.91C226.289 126.92 236.771 133.3 245.5 136.12C254.229 138.94 291.76 140.79 297.5 136.12C288.76 131.45 280.181 118.52 274 111.07C267.5 102.16 265.853 97.3 264.5 94.5C276.5 98 282.508 97.41 284.44 88.46C285.111 85.35 284.476 82.1801 282.74 79.0801C294.818 73.7401 302.5 65.74 302.5 56.78C302.5 40.73 277.818 27.72 247.372 27.72C241.883 27.72 236.582 28.1499 231.579 28.9299C228.303 14.0399 205.628 2.5 178.141 2.5Z" fill="#FFD54F" stroke="black" stroke-width="5"/>
<path d="M44.241 62.3799C46.272 62.3799 47.767 63.4799 48.724 65.6899L45.413 69.3201C44.964 68.8601 44.446 68.6201 43.86 68.6201C42.825 68.6201 41.751 69.51 40.638 71.29C39.72 72.75 39.124 74.1199 38.851 75.3899C38.714 75.9899 38.646 76.54 38.646 77.03C38.646 78.34 39.124 79.24 40.081 79.72C40.394 79.88 40.726 79.96 41.077 79.96C42.093 79.96 43.157 79.21 44.271 77.7L45.208 81.1899C43.274 83.3399 41.312 84.4099 39.319 84.4099C37.288 84.4099 35.804 83.3399 34.866 81.1899C34.3 79.9399 34.017 78.54 34.017 77C34.017 75.87 34.163 74.6699 34.456 73.3999C35.042 70.7999 36.155 68.43 37.796 66.28C39.769 63.68 41.917 62.3799 44.241 62.3799ZM48.958 63.8201C53.665 63.3701 57.796 63.0499 61.351 62.8799C59.28 70.8699 57.972 77.65 57.425 83.24L52.386 84.53C53.245 78.87 54.29 73.2201 55.521 67.6001C54.974 67.7101 54.144 67.8901 53.03 68.1201C52.132 72.6901 51.272 77.73 50.452 83.24L45.413 84.53L48.958 63.8201ZM56.019 84.8799C58.89 77.5599 61.214 70.5 62.991 63.7L71.8969 62.21C70.8819 68.12 70.423 75.12 70.521 83.21L64.31 84.6499L64.749 80.98L62.786 81.3701L62.171 83.9399L56.019 84.8799ZM65.218 77.0601L66.565 65.98H66.536L63.782 77.3201L65.218 77.0601ZM80.979 62.3799C83.011 62.3799 84.5049 63.4799 85.4619 65.6899L82.151 69.3201C81.702 68.8601 81.185 68.6201 80.599 68.6201C79.563 68.6201 78.4889 69.51 77.3759 71.29C76.4579 72.75 75.862 74.1199 75.589 75.3899C75.452 75.9899 75.3839 76.54 75.3839 77.03C75.3839 78.34 75.8619 79.24 76.8189 79.72C77.1319 79.88 77.464 79.96 77.815 79.96C78.831 79.96 79.8959 79.21 81.0089 77.7L81.946 81.1899C80.013 83.3399 78.05 84.4099 76.058 84.4099C74.026 84.4099 72.542 83.3399 71.604 81.1899C71.038 79.9399 70.755 78.54 70.755 77C70.755 75.87 70.9009 74.6699 71.1939 73.3999C71.7799 70.7999 72.894 68.43 74.534 66.28C76.507 63.68 78.655 62.3799 80.979 62.3799ZM85.696 63.8201L91.116 62.8799C90.413 64.9299 89.769 67.4201 89.183 70.3501C90.12 68.2801 91.282 66.1001 92.669 63.8201L98.089 62.8799C96.019 70.8699 94.71 77.65 94.163 83.24L89.124 84.53L90.823 74.5701C89.651 76.7901 88.44 79.69 87.19 83.24L82.151 84.53L85.696 63.8201ZM95.013 83.1499C96.399 77.5099 97.5909 70.96 98.5869 63.52C98.5869 63.52 101.927 63.0501 108.606 62.1201L108.255 67.54C106.302 67.71 104.485 67.9299 102.806 68.1799C102.591 69.0199 102.386 69.88 102.19 70.76C106.546 74.55 108.099 78.22 106.849 81.78C106.224 83.61 104.593 84.53 101.956 84.53C100.022 84.53 97.708 84.0699 95.013 83.1499ZM101.253 75.45C101.077 76.48 100.911 77.5301 100.755 78.5801C101.458 78.8201 102.015 78.9299 102.425 78.9299C102.913 78.9299 103.216 78.7699 103.333 78.4399C103.372 78.3399 103.382 78.21 103.362 78.05C103.206 77.16 102.503 76.29 101.253 75.45ZM117.776 61.5901C119.847 61.5901 121.312 62.74 122.171 65.05C122.62 66.24 122.845 67.55 122.845 68.97C122.845 70.34 122.64 71.8199 122.229 73.4299C121.507 76.1599 120.257 78.68 118.479 80.98C116.312 83.8 114.017 85.2 111.595 85.2C109.505 85.2 108.021 84.05 107.142 81.75C106.712 80.61 106.497 79.3399 106.497 77.9399C106.497 76.5499 106.712 75.0499 107.142 73.4299C107.864 70.6699 109.104 68.1401 110.862 65.8401C113.03 63.0101 115.335 61.5901 117.776 61.5901ZM116.722 68.8601C115.647 68.8601 114.554 69.73 113.44 71.49C112.542 72.88 111.917 74.2401 111.565 75.5601C111.39 76.2701 111.302 76.9 111.302 77.47C111.302 78.27 111.497 78.9199 111.888 79.4299C112.337 79.9999 112.962 80.28 113.763 80.28C114.856 80.28 115.843 79.71 116.722 78.55C117.425 77.63 117.933 76.55 118.245 75.3C118.616 73.84 118.694 72.39 118.479 70.96C118.245 69.56 117.659 68.8601 116.722 68.8601ZM128.411 79.55C126.712 82.93 125.433 85.9501 124.573 88.6001L119.036 88.72L123.108 79.23L128.411 79.55ZM136.146 63.8201L141.565 62.8799C140.394 66.4099 139.808 68.9901 139.808 70.6101C139.808 72.2501 140.413 72.9101 141.624 72.5801L143.118 63.8201L148.538 62.8799C146.468 70.8699 145.159 77.65 144.612 83.24L139.573 84.53L140.921 76.5601C138.108 77.3601 136.272 76.85 135.413 75.04C134.417 72.99 134.661 69.2501 136.146 63.8201ZM159.847 62.5901L159.671 68.04C158.304 68.11 157.005 68.2101 155.774 68.3301C154.485 73.7401 153.616 78.71 153.167 83.24L148.216 84.53L150.911 68.9399C150.384 69.0199 149.856 69.11 149.329 69.21L147.776 69.5L147.425 64.02L159.847 62.5901ZM167.757 61.5901C169.827 61.5901 171.292 62.74 172.151 65.05C172.601 66.24 172.825 67.55 172.825 68.97C172.825 70.34 172.62 71.8199 172.21 73.4299C171.487 76.1599 170.237 78.68 168.46 80.98C166.292 83.8 163.997 85.2 161.575 85.2C159.485 85.2 158.001 84.05 157.122 81.75C156.692 80.61 156.478 79.3399 156.478 77.9399C156.478 76.5499 156.692 75.0499 157.122 73.4299C157.845 70.6699 159.085 68.1401 160.843 65.8401C163.011 63.0101 165.315 61.5901 167.757 61.5901ZM166.702 68.8601C165.628 68.8601 164.534 69.73 163.421 71.49C162.522 72.88 161.897 74.2401 161.546 75.5601C161.37 76.2701 161.282 76.9 161.282 77.47C161.282 78.27 161.478 78.9199 161.868 79.4299C162.317 79.9999 162.942 80.28 163.743 80.28C164.837 80.28 165.823 79.71 166.702 78.55C167.405 77.63 167.913 76.55 168.226 75.3C168.597 73.84 168.675 72.39 168.46 70.96C168.226 69.56 167.64 68.8601 166.702 68.8601ZM179.739 63.8999C180.364 63.8099 181.536 63.5401 183.255 63.1101C184.739 62.7601 185.931 62.5399 186.829 62.4399C187.181 62.4199 187.522 62.4099 187.854 62.4099C190.433 62.4099 191.712 63.3299 191.692 65.1599C191.692 67.7599 190.091 70.36 186.888 72.96C188.899 72.82 190.062 73.3899 190.374 74.6599C190.433 74.9299 190.462 75.21 190.462 75.51C190.462 76.97 189.759 78.46 188.353 79.96C187.278 81.11 185.95 82.13 184.368 83.01C182.474 84.06 180.296 84.5901 177.835 84.5901C177.444 84.5901 177.054 84.5801 176.663 84.5601C177.425 80.5501 178.265 75.1699 179.183 68.4199C179.456 66.4999 179.642 64.9999 179.739 63.8999ZM182.845 76.0901C182.688 76.8301 182.522 77.8401 182.347 79.1101C185.101 78.2701 186.478 77.31 186.478 76.24C186.478 75.85 186.136 75.6499 185.452 75.6499C184.847 75.6499 183.978 75.8001 182.845 76.0901ZM184.456 68.24C184.3 68.88 184.153 69.5299 184.017 70.1699L183.606 72.1101C185.032 71.2301 186.048 70.2101 186.653 69.0601C186.79 68.8101 186.858 68.6 186.858 68.45C186.858 68.11 186.604 67.95 186.097 67.95C185.706 67.95 185.159 68.04 184.456 68.24ZM205.843 63.8201L210.882 62.8799C208.851 70.7099 207.522 77.5 206.897 83.24L202.239 84.53L205.843 63.8201ZM189.642 83.1499C189.915 82.8799 190.579 79.59 191.634 73.28C191.634 73.28 191.995 71.1599 192.718 66.9199C193.05 64.9499 193.294 63.64 193.45 63C193.45 63 194.983 62.7801 198.05 62.3501C197.483 64.4201 196.907 67.0801 196.321 70.3201C201.048 74.2701 202.767 78.08 201.478 81.78C200.853 83.61 199.222 84.53 196.585 84.53C194.651 84.53 192.337 84.0699 189.642 83.1499ZM195.032 78.46C195.911 78.78 196.585 78.9299 197.054 78.9299C197.542 78.9299 197.845 78.7699 197.962 78.4399C198.001 78.3399 198.011 78.21 197.991 78.05C197.835 77.06 197.005 76.11 195.501 75.21C195.501 75.21 195.413 75.7501 195.237 76.8201C195.159 77.3701 195.091 77.92 195.032 78.46ZM221.37 68.1799C221.214 68.7499 221.077 69.3001 220.96 69.8501L220.638 71.46L225.325 70.47L225.062 74.51C222.835 74.9 221.087 75.24 219.817 75.54C219.739 75.93 219.671 76.32 219.612 76.71L219.407 77.8501L224.856 77.0601L224.476 82.51C221.663 82.74 218.099 83.42 213.782 84.53L217.269 63.52L227.024 62.1201L226.644 67.54C224.729 67.71 222.972 67.9299 221.37 68.1799ZM235.491 62.3799C237.522 62.3799 239.017 63.4799 239.974 65.6899L236.663 69.3201C236.214 68.8601 235.696 68.6201 235.11 68.6201C234.075 68.6201 233.001 69.51 231.888 71.29C230.97 72.75 230.374 74.1199 230.101 75.3899C229.964 75.9899 229.896 76.54 229.896 77.03C229.896 78.34 230.374 79.24 231.331 79.72C231.644 79.88 231.976 79.96 232.327 79.96C233.343 79.96 234.407 79.21 235.521 77.7L236.458 81.1899C234.524 83.3399 232.562 84.4099 230.569 84.4099C228.538 84.4099 227.054 83.3399 226.116 81.1899C225.55 79.9399 225.267 78.54 225.267 77C225.267 75.87 225.413 74.6699 225.706 73.3999C226.292 70.7999 227.405 68.43 229.046 66.28C231.019 63.68 233.167 62.3799 235.491 62.3799ZM250.989 62.5901L250.813 68.04C249.446 68.11 248.147 68.2101 246.917 68.3301C245.628 73.7401 244.759 78.71 244.31 83.24L239.358 84.53L242.054 68.9399C241.526 69.0199 240.999 69.11 240.472 69.21L238.919 69.5L238.567 64.02L250.989 62.5901ZM247.269 83.1499C247.542 82.8799 248.206 79.59 249.261 73.28C249.261 73.28 249.622 71.1599 250.345 66.9199C250.677 64.9499 250.921 63.64 251.077 63C251.077 63 252.61 62.7801 255.677 62.3501C255.11 64.4201 254.534 67.0801 253.948 70.3201C258.675 74.2701 260.394 78.08 259.104 81.78C258.479 83.61 256.849 84.53 254.212 84.53C252.278 84.53 249.964 84.0699 247.269 83.1499ZM252.659 78.46C253.538 78.78 254.212 78.9299 254.681 78.9299C255.169 78.9299 255.472 78.7699 255.589 78.4399C255.628 78.3399 255.638 78.21 255.618 78.05C255.462 77.06 254.632 76.11 253.128 75.21C253.128 75.21 253.04 75.7501 252.864 76.8201C252.786 77.3701 252.718 77.92 252.659 78.46Z" fill="black"/>
</svg>
